<?xml version="1.0" encoding="utf-8"?>
<!-- Generator: Adobe Illustrator 16.0.0, SVG Export Plug-In . SVG Version: 6.00 Build 0)  -->
<!DOCTYPE svg PUBLIC "-//W3C//DTD SVG 1.1//EN" "http://www.w3.org/Graphics/SVG/1.1/DTD/svg11.dtd">
<svg version="1.1" id="Layer_1" xmlns="http://www.w3.org/2000/svg" xmlns:xlink="http://www.w3.org/1999/xlink" x="0px" y="0px"
	 width="468.6px" height="431.6px" viewBox="0 0 468.6 431.6" enable-background="new 0 0 468.6 431.6" xml:space="preserve">
<g>
	<path fill="#010101" d="M289.5,298.1c2.7-0.6,5.4-1.1,8.1-1.7c1.4-0.3,1.9,1.8,0.6,2.1c-2.7,0.6-5.4,1.1-8.1,1.7
		C288.7,300.5,288.1,298.4,289.5,298.1z"/>
	<path fill="#010101" d="M337.7,263.7c0.2-0.1,0.4-0.3,0.6-0.4c-7.6,2.1-15.4,3.4-23.2,4c-10,2.1-20.2,3.2-30.5,3.3
		c-0.8,0-0.8-1.3,0-1.3c7-0.1,13.9-0.7,20.8-1.6c-4.8,0-9.6-0.3-14.5-0.8c-1.4-0.2-1.4-2.3,0-2.2c10.4,1.2,20.9,1.1,31.2-0.3
		c5.1-1.3,10.2-2.8,15.2-4.7c0.8-0.3,1.1,1,0.3,1.2c-0.8,0.3-1.7,0.6-2.6,0.9c2.8-0.7,5.6-1.5,8.4-2.4c1.8-1.4,3.5-2.9,5.2-4.4
		c-1.2,0.3-2.4,0.7-3.5,1c-0.8,0.2-1.4-0.5-1.3-1.2c-14.3,5.1-29.2,8.3-44.4,9.5c-0.8,0.1-0.8-1.2,0-1.3c15.3-1.3,30.3-4.5,44.7-9.7
		c0.4-0.1,0.7,0.1,0.8,0.5c2.4-0.7,4.8-1.4,7.2-2.1c1.7-1.7,3.4-3.4,5-5.2c-8,3.4-16,6.8-24,10.3c-0.9,0.4-1.7-0.4-1.6-1.1
		c-10.1,3-20.4,5.1-30.9,6.4c-0.8,0.1-0.8-1.2,0-1.3c2.8-0.3,5.5-0.8,8.3-1.2c-3.9,0-7.8,0-11.7,0c-1.4,0-1.4-2.2,0-2.2
		c5.2,0,10.4,0,15.5,0c0.8,0,1.1,0.7,1,1.3c8.7-1.7,17.3-4,25.7-6.9c6.9-3,13.9-5.9,20.8-8.9c2.1-2.6,4.1-5.3,6-8.2
		c-7.9,2-15.8,3.9-23.6,5.9c-0.3,0.1-0.5-0.1-0.7-0.3c-3.6,1-7.2,2-10.7,3c-0.3,0.1-0.5,0-0.7-0.2c-0.1,0-0.1,0-0.2,0.1
		c-1.3,0.3-1.9-1.7-0.6-2.1c2.2-0.6,4.4-1.1,6.6-1.7c-11.3,0.8-22.6,1.7-33.9,2.5c-0.8,0.1-0.8-1.2,0-1.3c13.7-1,27.4-2,41.2-3.1
		c8.1-2,16.1-4.1,24.2-6.1c0.2-0.1,0.4,0,0.6,0c0.2-0.3,0.4-0.6,0.5-0.9c0.7-1.2,2.6-0.1,1.9,1.1c-0.2,0.3-0.3,0.5-0.5,0.7
		c1.5-0.4,3-0.7,4.5-1.1c0.8-0.2,1.2,1,0.3,1.2c-1.9,0.5-3.9,1-5.8,1.4c-1.5,2.5-3.2,4.8-4.9,7.1c0.1,0,0.3-0.1,0.4-0.1
		c1.1-0.4,2,1.5,0.8,2c-1.3,0.6-2.7,1.1-4,1.7c-2.4,2.9-4.9,5.7-7.6,8.4c-0.1,0.3-0.3,0.5-0.7,0.6c-2.2,2.2-4.6,4.3-7,6.2
		c0,0.4-0.2,0.9-0.7,1.1c-0.3,0.1-0.7,0.2-1,0.3c-1.9,1.4-3.8,2.8-5.7,4.1C337.6,266.4,336.5,264.5,337.7,263.7z"/>
	<path fill="#010101" d="M451.4,38.8c1.9-1.3,3.8-2.7,5.7-4c1.1-0.8,2.2,1.1,1.1,1.9c-1.9,1.3-3.8,2.7-5.7,4
		C451.4,41.4,450.3,39.6,451.4,38.8z"/>
	<path fill="#010101" d="M437.7,57.5c0.6-0.1,1.2-0.1,1.8-0.2c-0.2-0.5,0-1.2,0.7-1.4c8-2.5,15-6.9,20.7-13c1-1,2.5,0.5,1.5,1.5
		c-5.2,5.5-11.4,9.6-18.3,12.4c1.2-0.1,2.5-0.3,3.7-0.4c5.1-2.5,10.2-4.9,15.4-7.4c0.7-0.4,1.4,0.8,0.7,1.1c-4,1.9-8,3.9-12.1,5.8
		c4.7-0.6,9.4-1.1,14.1-1.7c1.4-0.2,1.4,2,0,2.2c-9.4,1.1-18.8,2.3-28.2,3.4C436.3,59.8,436.3,57.6,437.7,57.5z"/>
	<path fill="#010101" d="M459.7,64.6c-6.5,0.7-12.8,2.6-18.8,5.5c-0.7,0.4-1.4-0.7-0.7-1.1c6.6-3.2,13.5-5.2,20.7-5.8
		c2.2-1.2,4.5-2.5,6.7-3.7c1.2-0.7,2.3,1.2,1.1,1.9c-1,0.5-1.9,1.1-2.9,1.6c0.2,0,0.4,0,0.6,0c0.8,0,0.8,1.3,0,1.3c-1,0-2,0-3.1,0.1
		c-0.7,0.4-1.4,0.8-2.1,1.1C460.5,65.9,459.8,65.3,459.7,64.6z"/>
	<path fill="#010101" d="M433.6,88.1c8.3-4.7,16.6-9.3,24.9-14c-1,0-1.7-1.5-0.6-2c2.7-1.2,5.4-2.3,8-3.5c1.3-0.5,2.4,1.3,1.1,1.9
		c-0.3,0.1-0.7,0.3-1,0.4c0.3,0.5,0.4,1.2-0.3,1.6c-10.3,5.8-20.7,11.6-31,17.4C433.5,90.6,432.4,88.7,433.6,88.1z"/>
	<path fill="#010101" d="M457.5,88c-13.1,7.2-27.2,12.4-41.9,15.2c-1.4,0.3-1.9-1.8-0.6-2.1c16.6-3.2,32.3-9.2,46.7-18.1
		c0,0,0.1-0.1,0.1-0.1c-9.8,5.8-20.6,9.6-32,11.2c-0.8,0.1-1.2-1.1-0.3-1.2c12.6-1.8,24.5-6.3,35.2-13.3c0.6-0.7,1.2-1.4,1.8-2.1
		c0.9-1.1,2.4,0.5,1.5,1.5c-0.9,1-1.7,2-2.6,3c0.2,0.5,0.2,1.1-0.4,1.4c-0.6,0.4-1.2,0.8-1.9,1.2c-1.3,1.5-2.6,3.1-4,4.6
		C458.3,90.3,456.9,89,457.5,88z"/>
	<path fill="#010101" d="M420.5,109.4c12.4-0.7,24.5-3,36.3-6.8c1.1-0.4,0.9-1.9-0.1-2.1c0,0,0.1-0.1,0.1-0.1c1-0.2,2.1-0.5,3.1-0.7
		c0.8-0.2,0.5-1.4-0.3-1.2c-0.4,0.1-0.9,0.2-1.3,0.3c1-1.5,1.4-3.2,1.2-5c0-0.3-0.1-0.4-0.3-0.6c0.7-0.5,1.4-0.9,2-1.4
		c0.7-0.5,0-1.6-0.7-1.1c-2.2,1.6-4.5,3.1-6.9,4.4c0.3-0.8-0.2-1.9-1.2-1.5c-3.5,1.3-6.9,2.6-10.4,4c-1.3,0.5-0.7,2.6,0.6,2.1
		c2.9-1.1,5.8-2.2,8.7-3.3c-7.3,3.7-15.2,5.9-23.4,6.6c-0.8,0.1-0.8,1.4,0,1.3c10.6-0.9,20.5-4.2,29.4-9.8c0,1.9-0.8,3.7-2.4,4.8
		c-0.2,0.1-0.3,0.3-0.4,0.5c-8.5,2-17,4.1-25.6,6.1c-0.4,0.1-0.5,0.5-0.4,0.8c-2.7,0.3-5.4,0.6-8.2,0.7
		C419.1,107.4,419.1,109.5,420.5,109.4z M435.1,105.6c6.6-1.6,13.2-3.1,19.8-4.7c0,0,0,0,0,0.1C448.4,103,441.8,104.5,435.1,105.6z"
		/>
	<path fill="#010101" d="M438.5,119c0,0,0.1,0,0.1-0.1c-9.8,3.2-19.6,6.4-29.4,9.7c-0.6,0.2-0.9-0.5-0.7-0.9
		c-8.3,1.5-16.3,4.3-23.9,8.2c-0.7,0.4-1.4-0.7-0.7-1.1c9.6-5,19.9-8,30.6-9.3c9.9-3.2,19.7-6.5,29.6-9.7c0.2-0.1,0.3,0,0.5,0
		c1.6-0.8,3.2-1.7,4.8-2.5c1.2-0.6,2.3,1.2,1.1,1.9c-3.6,1.9-7.3,3.8-10.9,5.8C438.4,121.5,437.3,119.7,438.5,119z"/>
	<path fill="#010101" d="M383.2,154.2c21.3-0.6,41.8-8.4,58.1-22.2c1.1-0.9,2.6,0.6,1.5,1.5c-16.7,14.2-37.7,22.3-59.6,22.9
		C381.8,156.4,381.8,154.3,383.2,154.2z"/>
	<path fill="#010101" d="M416.8,156c5.6-3.4,11.2-6.8,16.8-10.1c1.2-0.7,2.3,1.1,1.1,1.9c-5.6,3.4-11.2,6.8-16.8,10.1
		C416.7,158.5,415.6,156.7,416.8,156z"/>
	<path fill="#010101" d="M415.4,160.6c4.2-0.5,7.8-2.8,10.2-6.2c0.8-1.1,2.6-0.1,1.9,1.1c-2.8,4.1-7.1,6.7-12,7.3
		C414.1,162.9,414.1,160.8,415.4,160.6z"/>
	<path fill="#010101" d="M399.9,181.5c4.6-2.3,9.2-4.6,13.8-6.9c1.2-0.6,2.3,1.2,1.1,1.9c-4.6,2.3-9.2,4.6-13.8,6.9
		C399.8,184,398.7,182.1,399.9,181.5z"/>
	<path fill="#010101" d="M393.5,193.7c-7.3,3.8-15.1,6.6-23.3,8.2c-0.8,0.2-1.2-1.1-0.3-1.2c8.3-1.7,16.2-4.5,23.6-8.4
		c0.1-0.1,0.2-0.2,0.3-0.3c3.5-2.5,6.9-4.9,10.4-7.4c1.1-0.8,2.2,1.1,1.1,1.9c-3.5,2.5-6.9,4.9-10.4,7.4
		C394.3,194.2,393.8,194,393.5,193.7z"/>
	<path fill="#010101" d="M346.2,232.7c-3.8,0.9-7.6,1.8-11.5,2.8c-0.8,0.2-1.2-1.1-0.3-1.2c3.5-0.8,7-1.7,10.5-2.5
		c0-0.6,0.3-1.1,1-1.1c1.4,0,2.7,0,4.1-0.1c5.3-1.3,10.6-2.6,16-3.9c3.8-1.7,7.4-3.8,10.7-6.5c1.1-0.9,2.1-1.8,3.1-2.7
		c-15.2,2.4-30.5,4.8-45.7,7.2c-0.8,0.1-1.2-1.1-0.3-1.2c15.9-2.5,31.8-5,47.7-7.5c1-1,2-2,2.9-3.1c-11,2.4-22,4.9-33,7.3
		c-0.8,0.2-1.2-1.1-0.3-1.2c11.6-2.6,23.2-5.2,34.8-7.7c1.6-1.9,3.2-3.9,4.7-6c-10.2,2.7-20.4,5.3-30.5,8c-0.8,0.2-1.2-1-0.3-1.2
		c10.7-2.8,21.4-5.6,32.1-8.4c1.1-1.5,2.2-3.1,3.3-4.6c-4.8,1.9-9.6,3.3-14.6,4.3c-6.2,1.8-12.5,3.7-18.7,5.5
		c-0.8,0.2-1.1-1-0.3-1.2c3.5-1,7-2.1,10.6-3.1c-3.1,0.2-6.2,0.3-9.3,0.2c-1.4-0.1-1.4-2.2,0-2.2c12.9,0.5,25.4-2.2,36.9-7.8
		c1.2-0.6,2.3,1.2,1.1,1.9c-0.8,0.4-1.6,0.8-2.5,1.2c0.1,0.2,0,0.5-0.2,0.8c-1,1.4-2,2.9-3.1,4.3c0.7-0.2,1.4-0.4,2.2-0.6
		c0.8-0.2,1.2,1,0.3,1.2c-1.2,0.3-2.5,0.6-3.7,1c-2.8,3.8-5.6,7.5-8.8,11c0.4-0.1,0.8-0.1,1.3-0.2c0.8-0.1,1.2,1.1,0.3,1.2
		c-1,0.2-2,0.3-3.1,0.5c-2.2,2.2-4.5,4.3-7,6.2c-0.8,0.6-1.6,1.1-2.4,1.7c0.4-0.1,0.8-0.2,1.2-0.3c0.8-0.2,1.2,1.1,0.3,1.2
		c-1.8,0.4-3.5,0.9-5.3,1.3C363,230.8,354.7,232.8,346.2,232.7z"/>
	<path fill="#010101" d="M232.1,133.4c-1.2,7.5-7.6,11.7-13.2,16c-8.1,6.1-12.6,13.7-14.3,23.7c-1.3,8-1.3,16.3-0.9,24.4
		c0.3-15.2,5.2-30.1,14.2-42.4c1.6-3.1,3.4-6.2,5.5-9c0.8-1.1,2.7,0,1.9,1.1c-0.9,1.2-1.7,2.5-2.5,3.8c0,0.1-0.1,0.2-0.1,0.3
		c0,0-0.1,0.1-0.1,0.1c-7.7,12.5-11,27.2-9.4,41.9c0.2,1.4-2,1.4-2.2,0c-1.1-10.5,0.2-21,3.8-30.8c-7.9,13.8-11.2,30-9.1,46
		c0.1,0.7-0.7,0.8-1.1,0.4c1,11.2,2.8,22.3,5.3,33.2c0.3,1.4-1.8,1.9-2.1,0.6c-4.3-18.4-7.4-38.3-6.5-57.5
		c-3.5,14.8-5.9,29.9-7.1,45.1c-0.1,0.8-1.4,0.8-1.3,0c1.5-17.9,4.5-35.7,9.1-53c0.1-0.7,0.1-1.3,0.2-2c1.1-8.7,4-17.3,10.5-23.4
		c6.1-5.8,15.8-9.7,17.4-18.9C230.3,131.4,232.4,132,232.1,133.4z"/>
	<path fill="#010101" d="M184.9,261c-1.1,0.8-2.2-1.1-1.1-1.9c1.3-1,1.6-2.9,0.7-4.2c-0.7-1.2,1.1-2.3,1.9-1.1
		C187.9,256.2,187.2,259.3,184.9,261z"/>
	<path fill="#010101" d="M101.9,341.1c2.8,3.9,1.8,9.2-1.9,12.1c-1.1,0.8-2.2-1-1.1-1.9c2.8-2.2,3.2-6.3,1.2-9.1
		C99.2,341.1,101.1,340,101.9,341.1z"/>
	<path fill="#010101" d="M269.5,311.2c-3.3,0.5-6.5,0.9-9.8,1.4c-1.4,0.2-1.9-1.9-0.6-2.1c3.3-0.5,6.6-0.9,9.8-1.4
		C270.2,308.9,270.8,311,269.5,311.2z"/>
	<path fill="#010101" d="M244.3,309.5c-3.6,0.2-7.3,0.4-10.9,0.5c-1.4,0.1-1.4-2.1,0-2.2c3.6-0.2,7.3-0.4,10.9-0.5
		c0.6,0,0.9,0.3,1,0.8c17.2-0.5,34.3-2.4,51.3-5.9c0.8-0.2,1.2,1.1,0.3,1.2c-17.2,3.5-34.7,5.5-52.3,5.9
		C244.5,309.4,244.4,309.5,244.3,309.5z"/>
	<path fill="#010101" d="M208.7,326.1c-0.6,0-1.2,0-1.7,0c-1.4,0-1.4-2.2,0-2.2c0.6,0,1.2,0,1.7,0
		C210.1,323.9,210.1,326.1,208.7,326.1z"/>
	<path fill="#010101" d="M353.6,184.1c-1.5,0.2-3.1,0.4-4.6,0.6c-1.4,0.2-1.9-1.9-0.6-2.1c1.5-0.2,3.1-0.4,4.6-0.6
		C354.4,181.9,355,183.9,353.6,184.1z"/>
	<path fill="#010101" d="M358.6,215.1c-10,0.9-19.9,1.8-29.9,2.7c-1.4,0.1-1.4-2,0-2.2c10-0.9,19.9-1.8,29.9-2.7
		C360,212.8,359.9,215,358.6,215.1z"/>
	<path fill="#010101" d="M344.8,220.1c-3.8,0.4-7.7,0.8-11.5,1.2c-1.4,0.1-1.4-2,0-2.2c3.8-0.4,7.7-0.8,11.5-1.2
		C346.2,217.7,346.2,219.9,344.8,220.1z"/>
	<path fill="#010101" d="M427.4,74.3c-2.5,1.1-5,2.2-7.5,3.3c-1.3,0.6-2.4-1.3-1.1-1.9c2.5-1.1,5-2.2,7.5-3.3
		C427.6,71.9,428.7,73.8,427.4,74.3z"/>
	<path fill="#010101" d="M259.3,210.1c-0.4-0.1-0.7-0.3-1.1-0.4c-1.3-0.5-0.7-2.6,0.6-2.1c0.7,0.2,1.3,0.5,2,0.7
		c0.6,0.2,0.9,0.7,0.8,1.3c-0.8,4.6-1.6,9.1-2.4,13.7c-0.2,1.4-2.3,0.8-2.1-0.6C257.8,218.6,258.5,214.4,259.3,210.1z"/>
	<path fill="#010101" d="M299.4,254.3c7.7-0.8,15.3-1.6,23-2.4c0.6-0.1,0.9,0.3,1,0.7c1.6-0.2,3.1-0.5,4.7-0.7
		c0.8-0.1,1.2,1.1,0.3,1.2c-8.4,1.4-16.9,2.4-25.4,3c-1.2,0.1-2.4,0.3-3.6,0.4c-0.3,0-0.5,0-0.6-0.2c-4.7,0.2-9.4,0.3-14.1,0.2
		c0.1,0.4-0.1,0.8-0.6,0.9c-8.6,0.8-17.3,1.7-25.9,2.5c-0.8,0.1-0.8-1.2,0-1.3c7.5-0.7,14.9-1.4,22.4-2.2c-3.1-0.1-6.2-0.2-9.4-0.5
		c-0.8-0.1-0.8-1.4,0-1.3c9.1,0.6,18.2,0.7,27.3,0.3C298.7,254.7,299,254.4,299.4,254.3z"/>
	<path fill="#010101" d="M235,342c2.5-0.7,5-1.3,7.5-2c-11.3,0.3-22.5,0.6-33.8,1c-0.8,0-0.8-1.3,0-1.3c13.1-0.4,26.1-0.8,39.2-1.1
		c0.5-0.1,1-0.3,1.5-0.4c0.5-0.1,0.8,0,1.1,0.3c1.4,0,2.9-0.1,4.3-0.1c0.8,0,0.8,1.3,0,1.3c-1.4,0-2.8,0.1-4.2,0.1
		c-0.1,0.2-0.3,0.4-0.6,0.5c-4.8,1.3-9.6,2.6-14.4,3.8C234.2,344.4,233.6,342.4,235,342z"/>
	<path fill="#010101" d="M270.4,187.4c-0.5-5.8-0.9-11.5-1.4-17.3c-0.1-1.4,2-1.4,2.2,0c0.5,5.8,0.9,11.5,1.4,17.3
		C272.6,188.7,270.5,188.7,270.4,187.4z"/>
	<path fill="#010101" d="M366,194.6c-4.2,0-8.4,0-12.7,0c-1.4,0-1.4-2.2,0-2.2c4.2,0,8.4,0,12.7,0
		C367.4,192.4,367.4,194.6,366,194.6z"/>
	<path fill="#010101" d="M436.6,132.3c-0.2,0.1-0.5,0.2-0.7,0.2c0.1,0.2,0,0.4-0.2,0.6c-8.6,8-19.2,12.9-30.8,14.3
		c0,0.5-0.2,0.9-0.8,1c-1.4,0.2-2.8,0.4-4.2,0.7c-8.9,2.9-18.2,4.4-27.7,4.7c-0.8,0-0.8-1.3,0-1.3c7.9-0.2,15.7-1.3,23.3-3.4
		c-0.4-0.6-0.3-1.4,0.6-1.5c1.2-0.2,2.5-0.4,3.7-0.6c0.1-0.2,0.3-0.4,0.6-0.4c1.3,0,2.6-0.1,3.9-0.3c5.1-2,10.1-4.3,14.9-7.2
		c0.7-0.4,1.4,0.7,0.7,1.1c-3.3,1.9-6.6,3.7-10.1,5.2c8.8-1.9,16.9-6,23.8-12c-8,2.7-16.1,5.5-24.1,8.2c-0.8,0.3-1.3-0.3-1.3-1
		c-1.9,0.4-3.9,0.8-5.9,1.1c-0.8,0.1-1.2-1.1-0.3-1.2c4-0.6,8-1.5,11.9-2.7c2.7-0.9,5.4-1.8,8.1-2.8c2-0.8,3.9-1.6,5.9-2.5
		c-10.8,3.9-21.9,6.7-33.3,8.5c-6,1.7-12.1,2.8-18.4,3.4c-0.8,0.1-0.8-1.2,0-1.3c2.7-0.2,5.4-0.6,8.1-1.1c-0.2-0.4,0-1,0.5-1
		c3.2-0.3,6.3-0.7,9.4-1.2c6.8-1.9,13.4-4.6,19.8-7.9c0.7-0.4,1.4,0.7,0.7,1.1c-3.7,2-7.5,3.7-11.3,5.2c9.8-2,19.3-4.9,28.7-8.5
		c0.4-0.1,0.7,0.1,0.8,0.4c2.2-1.2,4.3-2.5,6.3-3.8c0.7-0.5,1.3,0.7,0.7,1.1c-2.1,1.4-4.3,2.7-6.6,4c0.9-0.3,1.8-0.6,2.7-0.9
		C437.3,129.8,437.9,131.8,436.6,132.3z"/>
	<path fill="#010101" d="M420.8,129.7c7.1-2.9,14.2-5.7,21.3-8.6c1.3-0.5,1.9,1.6,0.6,2.1c-7.1,2.9-14.2,5.7-21.3,8.6
		C420.1,132.3,419.6,130.2,420.8,129.7z"/>
	<path fill="#010101" d="M100.3,356.6c0.2-0.8,0.4-1.5,0.5-2.3c0.3-1.4,2.4-0.8,2.1,0.6c-0.2,0.8-0.4,1.5-0.5,2.3
		C102.1,358.6,100,358,100.3,356.6z"/>
	<path fill="#010101" d="M462.8,68.7c-8,3.5-16,7.1-23.9,10.6c-0.8,0.3-1.4-0.8-0.7-1.1c6.7-3,13.4-5.9,20.1-8.9
		c-7.1,1.1-13.9,3.1-20.5,6c-0.8,0.3-1.4-0.8-0.7-1.1c8.1-3.5,16.6-5.8,25.4-6.7c1-0.5,2.1-0.9,3.1-1.4c0.8-0.3,1.4,0.8,0.7,1.1
		c-0.7,0.3-1.3,0.6-2,0.9c-0.1,0.3-0.3,0.5-0.6,0.5C463.3,68.7,463,68.7,462.8,68.7z"/>
	<path fill="#010101" d="M439.8,87.2c8.1-3.9,16.2-7.8,24.3-11.7c0.7-0.4,1.4,0.8,0.7,1.1c-8.1,3.9-16.2,7.8-24.3,11.7
		C439.7,88.7,439.1,87.6,439.8,87.2z"/>
	<path fill="#010101" d="M436.2,55.1c7.5-5.1,15.1-10.2,22.6-15.3c0.7-0.5,1.3,0.7,0.7,1.1c-7.5,5.1-15.1,10.2-22.6,15.3
		C436.2,56.7,435.6,55.6,436.2,55.1z"/>
	<path fill="#010101" d="M416.7,152.7c-17.4,8.4-36.1,13.4-55.3,14.5c-0.8,0.1-0.8-1.2,0-1.3c19-1.1,37.5-6,54.7-14.3
		C416.8,151.3,417.5,152.4,416.7,152.7z"/>
	<path fill="#010101" d="M353.2,175c-0.8-0.1-0.5-1.4,0.3-1.2c19.7,2.8,39.7-0.3,57.7-8.8c0.8-0.4,1.4,0.8,0.7,1.1
		C393.6,174.8,373.3,177.9,353.2,175z"/>
	<path fill="#010101" d="M395.1,189.4c-13.8,7.5-28.9,12.1-44.6,13.4c-0.8,0.1-0.8-1.2,0-1.3c15.5-1.3,30.3-5.7,44-13.2
		C395.2,187.9,395.8,189,395.1,189.4z"/>
	<path fill="#010101" d="M336.2,209c-7.9,0.6-15.7,1.1-23.6,1.7c-0.8,0.1-0.8-1.2,0-1.3c7.9-0.6,15.7-1.1,23.6-1.7
		C337,207.7,337,209,336.2,209z"/>
	<path fill="#010101" d="M351.7,198.9c-9.4,0.2-18.8,0.5-28.2,0.7c-0.8,0-0.8-1.3,0-1.3c9.4-0.2,18.8-0.5,28.2-0.7
		C352.5,197.6,352.5,198.9,351.7,198.9z"/>
	<path fill="#010101" d="M373.9,220.5c-11.7,3.6-23.4,7.3-35.1,10.9c-0.8,0.2-1.1-1-0.3-1.2c0.7-0.2,1.4-0.4,2.1-0.7
		c-10.8,1.4-21.5,2.8-32.3,4.2c-0.8,0.1-0.8-1.2,0-1.3c12.4-1.6,24.8-3.2,37.1-4.8c0.3,0,0.4,0.1,0.5,0.3c9.2-2.8,18.4-5.7,27.6-8.5
		C374.3,219,374.7,220.2,373.9,220.5z"/>
	<path fill="#010101" d="M362.7,238.5c-11.3,3.2-22.5,6.4-33.8,9.6c0.4,0,0.7,0,1.1,0c0.8,0,0.8,1.3,0,1.3c-1.7-0.1-3.5-0.1-5.2-0.2
		c-0.6,0.2-1.1,0.3-1.7,0.5c-0.4,0.1-0.7-0.2-0.8-0.5c-17-0.5-34-1-51-1.5c-0.8,0-0.8-1.3,0-1.3c17.8,0.5,35.6,1.1,53.3,1.6
		c12.6-3.6,25.2-7.1,37.8-10.7C363.1,237,363.5,238.2,362.7,238.5z"/>
	<path fill="#010101" d="M276.5,270.5c18.6,1.6,37.2-0.2,55.1-5.5c0.8-0.2,1.1,1,0.3,1.2c-18,5.3-36.7,7.2-55.4,5.5
		C275.6,271.7,275.6,270.4,276.5,270.5z"/>
	<path fill="#010101" d="M319.1,274.2c-20.4,2.7-40.9,2.3-61.2-1.3c-0.8-0.1-0.5-1.4,0.3-1.2c20.1,3.5,40.6,3.9,60.8,1.2
		C319.9,272.8,319.9,274.1,319.1,274.2z"/>
	<path fill="#010101" d="M295.5,277.6c-14.2-0.1-28.4-0.2-42.6-0.4c-0.8,0-0.8-1.3,0-1.3c14.2,0.1,28.4,0.2,42.6,0.4
		C296.3,276.4,296.3,277.6,295.5,277.6z"/>
	<path fill="#010101" d="M311.6,284c0.8-0.2,1.1,1,0.3,1.2c-21.8,5.9-44.7,6.1-66.7,0.6c-7.5,0.5-14.9,1.9-22.2,4
		c-0.8,0.2-1.1-1-0.3-1.2c7.1-2.1,14.4-3.4,21.7-4c0.1-0.1,0.3-0.2,0.6-0.1c0.1,0,0.2,0.1,0.3,0.1c5.2-0.4,10.3-0.4,15.6,0
		c0.8,0.1,0.8,1.4,0,1.3c-3.7-0.3-7.3-0.4-11-0.3C270.3,290.1,291.4,289.5,311.6,284z"/>
	<path fill="#010101" d="M257.2,325.6c6.1,0.6,12.2-0.4,17.8-3.1c3-1.4,5.5-3.4,8-5.5c2.1,0,4.1,0,6.2,0.1c0.5,0,0.8-0.6,0.6-1
		c-0.4-0.7-0.7-1.3-1.1-2c-0.2-0.3-0.4-0.4-0.6-0.3c0.2-0.3,0.1-0.8-0.3-1c2.5-2.1,5-3.9,8-5.2c0.7-0.3,0.8-1,0.6-1.6
		c0.8-0.6,0.2-2.1-1-1.9c-5.8,1.2-11.6,2.5-17.3,3.7c-1.4,0.3-0.8,2.4,0.6,2.1c4.5-1,9.1-1.9,13.6-2.9c-2.6,1.5-4.8,3.5-7.1,5.5
		c-5.2-0.4-10.3,0-15.3,1.1c0-0.4-0.3-0.8-0.8-0.6c-18.3,6.7-37.4,10.3-56.9,10.7c-0.8,0-0.8,1.3,0,1.3c15.8-0.3,31.4-2.7,46.4-7.2
		c0,0.4,0.5,0.8,1,0.6c7.7-3.5,15.9-5.1,24.2-4.6c-0.8,0.7-1.5,1.4-2.3,2c-8.6,0.2-17.1,1.6-25.5,4.1c-0.8,0.2-0.5,1.5,0.3,1.2
		c7.7-2.3,15.5-3.6,23.4-4c-0.4,0.3-0.7,0.6-1.1,0.8c-3.4,2.4-7.2,4-11.2,4.9c0-0.4-0.3-0.8-0.8-0.7c-2.1,0.5-4.2,1-6.3,1.4
		c-2,0-4.1-0.2-6.1-0.6c2.9-0.7,5.7-1.4,8.6-2.1c0.8-0.2,0.5-1.4-0.3-1.2c-6.5,1.6-13,3.1-19.4,4.7c-1.1,0-2.3,0-3.4,0
		c-0.7,0-1,0.5-1,1.1c-0.1,0-0.2,0-0.3,0.1c-0.8,0.2-0.5,1.4,0.3,1.2c0.3-0.1,0.6-0.1,0.9-0.2c0,0,0,0,0,0c0.9,0,1.9,0,2.8,0
		c-2.6,0.3-5.2,0.5-7.8,0.7c-0.2,0-0.3,0-0.5,0c-7.2,0.5-14.4,0.7-21.6,0.4c-0.8,0-0.8,1.3,0,1.3c7,0.3,13.9,0.2,20.8-0.3
		c0,0,0,0,0,0c-14.8,2.1-29.7,1.3-44.2-2.3c-1.3-0.3-1.9,1.7-0.6,2.1c15.7,3.9,31.8,4.5,47.7,1.9c1-0.2,1-1.5,0.3-2c0,0,0,0,0,0
		C243.6,327.9,250.4,326.9,257.2,325.6z M284.4,315.7c0.7-0.6,1.3-1.2,2-1.8c0.3,0,0.7,0.1,1,0.1c0.1,0,0.1,0,0.1,0
		c-0.2,0.2-0.3,0.5-0.1,0.8c0.2,0.3,0.4,0.7,0.5,1C286.8,315.8,285.6,315.7,284.4,315.7z M253.3,325c-3.2,0.6-6.3,1-9.5,1.4
		c0.3-0.2,0.5-0.6,0.5-0.9c2.9-0.7,5.7-1.4,8.6-2.1C252.4,324,252.5,324.8,253.3,325z"/>
	<path fill="#010101" d="M204.5,340c-12.5-2.4-25.1-2.9-37.8-1.6c-0.8,0.1-0.8-1.2,0-1.3c12.8-1.4,25.5-0.8,38.1,1.6
		C205.7,338.9,205.3,340.2,204.5,340z"/>
	<path fill="#010101" d="M191.7,225.7c-0.1,0.8-1.4,0.5-1.2-0.3c1.8-10.6,3.7-21.1,5.5-31.7c0.1-0.8,1.4-0.5,1.2,0.3
		C195.3,204.5,193.5,215.1,191.7,225.7z"/>
	<path fill="#010101" d="M246.7,250.2c4.6-14.5,7.7-29.3,9.2-44.4c0.1-0.8,1.4-0.8,1.3,0c-1.6,15.2-4.7,30.2-9.3,44.8
		C247.7,251.4,246.4,251,246.7,250.2z"/>
	<path fill="#010101" d="M277.1,165.5c-2.3-24,0.1-48.2,7-71.4c0.2-0.8,1.5-0.5,1.2,0.3c-6.9,23-9.3,47.1-7,71
		C278.4,166.4,277.1,166.4,277.1,165.5z"/>
	<path fill="#010101" d="M337.1,39c-2.7,7.7-5,15.5-6.9,23.4c-1.1,5.2-2.2,10.5-3.3,15.7c-2.9,16.8-4,33.9-3.4,51
		c0,0.8-1.3,0.8-1.3,0c-0.4-11.1-0.1-22.2,1-33.2c-1.4,6.9-2.8,13.7-4.3,20.6c-0.2,0.8-1.4,0.5-1.2-0.3c2.6-12.7,5.3-25.4,7.9-38.2
		c0.9-5.4,2-10.8,3.3-16.1c1-4.9,2-9.9,3.1-14.8c0.1-0.6,0.8-0.6,1.1-0.2c0.9-2.8,1.7-5.5,2.7-8.2C336.1,37.9,337.4,38.2,337.1,39z"
		/>
	<path fill="#010101" d="M316.3,177.8c-0.1,0.8-1.4,0.5-1.2-0.3c1.6-11.7,3.2-23.4,4.8-35.1c0.1-0.8,1.4-0.5,1.2,0.3
		C319.5,154.4,317.9,166.1,316.3,177.8z"/>
	<path fill="#010101" d="M414.7,0.1c-0.2,1.8-0.3,3.6-0.5,5.4c-0.3-0.5-1.1-0.6-1.2,0.1c-0.1,0.8-0.2,1.6-0.4,2.4
		c-0.4-0.6-1.4-0.7-1.7,0.1c-7,15.7-11.1,32.4-12.1,49.5c-3.6-5.8-6.1-12.1-7.6-18.7c-0.1-9.1,2.2-18,6.9-25.9
		c0.2,0,0.4-0.2,0.5-0.4c0.2-0.5,0.4-0.9,0.6-1.4c0.3-0.7-0.8-1.1-1.2-0.5c-4.3,6.8-6.9,14.3-7.7,22.1c-0.1-0.6-0.1-1.2-0.2-1.8
		c1.4-8.4,3.5-16.6,6.4-24.7c0.3-0.8-1-1.1-1.2-0.3c-2.2,6.2-4,12.5-5.3,18.9c0.1-5.9,1.1-11.8,3-17.5c0.4-1.3-1.6-1.9-2.1-0.6
		c-3,8.9-3.8,18.3-2.6,27.4c-2.3,16-1.9,32.4,1.1,48.4c-0.5,2-1,4-1.5,6c-1.6-13.6-3.3-27.3-4.9-40.9c0.3-6.8,0.6-13.7,1-20.5
		c0-0.8-1.3-0.8-1.3,0c-0.2,4.2-0.4,8.5-0.6,12.7c-0.5-4-1-8.1-1.4-12.1c1.8-7.8,4.6-15.4,8.2-22.6c0.6-1.2-1.2-2.3-1.9-1.1
		c-3,5.9-5.3,11.9-7.1,18.2c-0.2-0.3-0.6-0.3-0.9-0.1c0.9-5.3,1.8-10.6,2.8-15.9c0.3-0.6,0.7-1.2,1.1-1.9c0.4-0.7-0.7-1.4-1.1-0.7
		c-0.1,0.1-0.1,0.3-0.2,0.4c-0.3-0.1-0.7,0-0.7,0.4c-0.1,0.4-0.1,0.8-0.2,1.2c-1.9,3.4-3.6,6.9-5,10.4c-0.2,0.1-0.3,0.2-0.5,0.4
		c-10.1,17.5-15.9,38.6-12.6,58.8c-3.6,16.5-4,33.5-1.3,50.3c0.1,0.8,1.4,0.5,1.2-0.3c-2.5-15.5-2.3-31.3,0.7-46.6
		c0.2,1,0.5,2.1,0.7,3.1c0.4,1.3,2.4,0.8,2.1-0.6c-0.7-2.7-1.2-5.4-1.6-8.1c1.1-4.5,2.4-8.9,3.9-13.3c0.3-0.8-1-1.1-1.2-0.3
		c-1.1,3.3-2.2,6.6-3,9.9c-1.1-13.7,1.9-27.6,7.3-40.3c-0.9,3.4-1.6,6.7-2.1,10.2c-0.1,0.3-0.2,0.5-0.3,0.8
		c-0.1,0.3-0.1,0.6,0.1,0.8c-0.4,3.4-0.7,6.9-0.8,10.4c0,0.8,1.3,0.8,1.3,0c0.1-3.3,0.3-6.6,0.7-9.9c0.3-0.1,0.6-0.3,0.8-0.7
		c1.9-5.5,3.9-11,5.8-16.5c0.5-1.3-1.6-1.9-2.1-0.6c-0.9,2.5-1.8,5-2.7,7.5c0.8-3.3,1.8-6.6,2.9-9.9c0.6-1.2,1.3-2.4,2-3.6
		c0.3-0.5,0.2-0.9-0.1-1.2c0.9-2.2,2-4.5,3.1-6.7c-3.5,20.3-7.1,40.6-10.6,61c-0.1,0.8,1.1,1.2,1.2,0.3c2.8-16,5.6-32,8.4-48
		c0.1,0.7,0.2,1.4,0.3,2.1c-0.9,3.6-1.6,7.2-2.2,10.9c-0.2,1.4,1.9,1.9,2.1,0.6c0.2-1.7,0.5-3.4,0.9-5c0.6,5.3,1.3,10.7,1.9,16
		c0,0.8-0.1,1.7-0.1,2.5c0,0.4,0.2,0.6,0.5,0.6c1.6,13.1,3.1,26.1,4.7,39.2c0,0.4,0.3,0.6,0.6,0.6c-2.3,9.2-4.6,18.5-6.9,27.7
		c-1.6,2.1-3.4,4.2-5.3,6.1c-0.6,0.6,0.3,1.5,0.9,0.9c1.3-1.3,2.5-2.6,3.6-4c-0.2,0.9-0.4,1.7-0.6,2.6c-3.3,4-6.7,8-10.1,12
		c4.2-9,7.1-18.5,8.6-28.5c0.1-0.8-1.1-1.2-1.2-0.3c-1.6,10.6-4.8,20.8-9.5,30.3c0.2-2.1,0.2-4.3,0.2-6.4c0-1-1.5-1.6-2-0.5
		c0,0.1-0.1,0.2-0.1,0.3c2.7-10.8,5.4-21.7,8.1-32.5c0.2-0.8-1-1.1-1.2-0.4c0.3-19.4,2.6-38.7,6.9-57.7c0.2-0.8-1.1-1.2-1.2-0.3
		c-4.7,20.6-7,41.7-7,62.8c0,0.1,0,0.2,0.1,0.3c-1.2,4.8-2.4,9.7-3.6,14.5c-0.2,0.1-0.3,0.2-0.4,0.4c-1,4.5-2.1,9-3.1,13.5
		c-0.9,3.6-1.8,7.2-2.7,10.8c-0.1,0.2,0,0.4,0.1,0.5c-0.1,0.4-0.2,0.8-0.3,1.2c-0.1-0.4-0.2-0.8-0.4-1.2c-0.1-0.3-0.4-0.5-0.6-0.6
		c0.9-8.3,0.9-16.7-0.1-25.1c-0.1-0.8-1.4-0.8-1.3,0c1,8.5,1,17,0,25.4c-0.2,0.2-0.2,0.5-0.1,0.9c-0.3,2.1-0.6,4.1-0.9,6.2
		c-1.9,2.1-3.7,4.1-5.6,6.1c2.2-8.1,4.5-16.2,6.7-24.3c0.2-0.8-1-1.1-1.2-0.3c-0.5,1.8-1,3.7-1.5,5.5c-0.2-0.5-1.1-0.6-1.2,0.1
		c-1.6,7-3.1,14-4.7,21.1c-0.7,0.7-1.3,1.4-2,2.1c0.5-3,0.6-6.1,0.4-9.1c1.7-6.3,3.4-12.6,5.1-18.9c0.2-0.8-1-1.1-1.3-0.3
		c-1.4,5.3-2.8,10.6-4.3,15.8c-0.2-0.9-0.3-1.9-0.6-2.8c-0.1-0.5-0.6-0.8-1-0.8c0.7-3.6,1.4-7.2,2.1-10.7c0.2-0.8-1.1-1.2-1.2-0.3
		c-1.9,9.8-3.8,19.6-5.8,29.5c-0.5,1.9-1.1,3.8-1.6,5.7c-0.1,0.2,0,0.3,0.1,0.5c-0.1,0.1-0.2,0.2-0.3,0.3c0.1-2,0.2-4,0.4-6
		c0.1-1.4-2.1-1.4-2.2,0c-0.2,2.8-0.3,5.6-0.5,8.3c-1.4,1.4-2.8,2.9-4.3,4.3c1.6-9.5,4.6-18.7,9.1-27.3c0.4-0.7-0.7-1.4-1.1-0.7
		c-4.8,9.3-8,19.2-9.5,29.5c-1.7,1.7-3.3,3.4-5,5.1c0.1-0.5,0.1-1.1,0.1-1.6c2-7.7,4-15.5,5.9-23.2c0.2-0.8-1-1.1-1.3-0.3
		c-1.8,6.9-3.5,13.8-5.3,20.7c-0.1-0.2-0.1-0.4-0.2-0.5c-0.6-1.3-2.5-0.2-1.9,1.1c1,2.1,0.7,4.6-0.8,6.3c-0.3,0.4-0.3,0.8-0.2,1.1
		c-2,2-4,3.9-6,5.8c2.6-8.1,5.3-16.2,7.9-24.3c0.3-0.8-1-1.1-1.2-0.3c-2.3,7.2-4.7,14.4-7,21.6c-0.1-0.8-0.1-1.7-0.2-2.5
		c-0.1-1.4-2.2-1.4-2.2,0c0.2,2.6,0.3,5.1,0.5,7.7c-2.1,2-4.2,4-6.3,6c2-6.9,4-13.8,5.9-20.7c0.2-0.8-1-1.1-1.2-0.3
		c-0.3,1-0.6,2-0.9,3c2.2-14.3,2.6-28.8,1-43.3c-0.1-0.8-1.4-0.8-1.3,0c2.1,19.7,0.7,39.4-4.2,58.6c0,0.1,0,0.2,0,0.3
		c-0.4,1.4-0.8,2.8-1.2,4.2c-0.3,0.2-0.5,0.5-0.8,0.7c-2.9,2.7-5.8,5.3-8.6,7.9c3.9-10.4,7.9-20.7,11.8-31.1c0.3-0.8-1-1.1-1.2-0.3
		c-4,10.5-8,21-12,31.5c-0.2,0.4,0.2,0.7,0.5,0.8c-0.3,0.3-0.7,0.6-1,0.9c-0.1-1.9-0.1-3.9-0.2-5.8c1.4-2.4,2.5-5,3.6-7.6
		c0.3-0.8-1-1.1-1.2-0.3c-0.7,1.9-1.5,3.7-2.4,5.4c-0.1-1.3-0.1-2.6-0.2-3.9c1.7-5.9,3.5-11.8,5.2-17.7c0.2-0.8-1-1.1-1.2-0.3
		c-1.4,4.7-2.8,9.3-4.1,14c-0.5-12.7-1-25.4-1.5-38.1c0-0.8-1.3-0.8-1.3,0c0.4,9.4,0.7,18.8,1.1,28.2c-0.4-0.1-0.8,0.1-0.8,0.6
		c0.3,5.6,0,11.2-0.8,16.6c0.2-8,0.3-16.1,0.5-24.1c0-0.8-1.3-0.8-1.3,0c-0.2,10.7-0.4,21.3-0.7,32c-0.1,0.4-0.2,0.8-0.3,1.2
		c-0.7,0.9-1.4,1.8-2.2,2.7c0.1-0.9,0.1-1.9,0.1-2.8c2.4-17.4,1.5-35-2.5-52.1c-0.2-0.8-1.4-0.5-1.2,0.3c3.6,15.2,4.6,30.8,3.1,46.2
		c-0.5-2-1.1-3.9-2.1-5.8c-1-8.2-1.9-16.4-2.9-24.7c0-0.1-0.1-0.2-0.1-0.3c-0.1-8.9-0.2-17.8-0.3-26.7c0-0.8-1.3-0.8-1.3,0
		c0.2,15.1,0.4,30.3,0.5,45.4c0,0.8,1.3,0.8,1.3,0c0-2.5-0.1-4.9-0.1-7.4c0.4,3.6,0.8,7.2,1.3,10.8c-0.8-0.9-2.5,0.1-1.8,1.2
		c1,1.6,1.9,3.3,2.5,5.1c0.4,3.6,0.9,7.3,1.3,10.9c-0.1,0.9-0.2,1.8-0.4,2.6c-2.6,2.6-5.4,5.1-8.4,7.2c-0.7,0.5,0,1.6,0.7,1.1
		c2.7-1.9,5.2-4,7.6-6.3c0.3,0.5,1,0.7,1.5,0.4c-5.7,5-11.4,10-17.2,14.9c4.6-10.5,9.3-21,13.9-31.5c0.3-0.8-0.8-1.4-1.1-0.7
		c-4.8,10.8-9.5,21.5-14.3,32.3c-0.1,0.2-0.1,0.4,0,0.6c-0.3,0-0.5,0.1-0.8,0.1c-0.6,0.1-0.6,0.9-0.1,1.2c-0.5,0.4-1,0.9-1.5,1.3
		c-0.1,0-0.2,0-0.3,0.1c-0.4,0.1-0.5,0.3-0.5,0.6c-1.1,0.9-2.1,1.8-3.2,2.7c0.4-2.7,0.2-5.6-0.7-8.4c-0.1-0.3-0.3-0.6-0.6-0.7
		c1.7-5.6,2.6-11.5,2.6-17.5c0-0.8-1.3-0.8-1.3,0c0,11-3,21.5-8.9,30.9c-0.4,0.7,0.7,1.4,1.1,0.7c2.2-3.5,4-7.2,5.5-11
		c0.6,2.8,0.5,5.7-0.5,8.4c-0.7,0.6-1.4,1.2-2.1,1.7c0,0-0.1,0-0.1,0c-0.2,0.1-0.4,0.2-0.4,0.4c-0.8,0.6-1.5,1.2-2.3,1.9
		c-0.8,0.3-1.7,0.6-2.5,1c-0.5,0.2-0.4,0.8,0,1.1c-3.2,2.7-6.5,5.3-9.8,8c5-19.6,5.9-40,2.6-60c-0.3-6.3-0.9-12.6-1.8-18.9
		c-2.1-15-4.9-30-0.2-44.9c1-3.1,2.3-6.2,3.8-9.1c-0.4,1.4-0.7,2.8-0.9,4.2c0,0.1,0,0.1,0,0.2c-4.7,18.3-4.8,37.4-0.4,55.6
		c1.2,12.5,2.4,25,3.5,37.5c0.1,0.8,1.4,0.8,1.3,0c-1-10.1-1.9-20.2-2.9-30.2c1.5,4.7,3.2,9.3,5.3,13.8c0.2,0.4,0.6,0.4,0.9,0.2
		c-0.5,4.4-1.6,8.7-3.4,13.1c-0.5,1.3,1.6,1.8,2.1,0.6c11.5-27.9-7-56-5.1-84.3c0.5-6.9,2.2-13.2,4.8-19.1c0.8-1.1,1.7-2.1,2.5-3.2
		c-2.2,17.5-2.3,35.2-0.1,52.7c0.1,0.8,1.4,0.8,1.3,0c-0.6-4.9-1.1-9.9-1.3-14.8c0.6,5.6,1.8,11.1,3.6,16.5c0.3,0.8,1.5,0.4,1.2-0.3
		c-6.6-20.4-5.1-42.7,4-62c-4,21.2-3.7,43,1,64.1c-0.8-0.2-1.8,0.7-1.2,1.5c1.7,2.4,2.2,5.4,1,8.2c-0.5,1.3,1.3,2.4,1.9,1.1
		c1.2-2.6,1.2-5.5,0.2-8.1c0-0.1,0-0.1,0-0.2c-5.4-22.4-5.8-45.7-1.2-68.3c0,0,0,0,0.1,0c-0.9,6.1-1.5,12.3-1.7,18.5
		c-0.2,1.4-0.2,2.8-0.2,4.2c-0.2,1.5-0.4,3-0.5,4.5c0,0.5,0.3,0.7,0.7,0.6c0.1,3.1,0.3,6.3,0.6,9.4c-0.2,3.9-0.2,7.9-0.1,11.9
		c0,0.8,1.3,0.8,1.3,0c0-0.9,0-1.7,0-2.6c0.9,5.6,2,11.1,3.5,16.6c0.4,1.3,2.4,0.8,2.1-0.6c-2.8-10.4-4.5-21-5.1-31.7
		c0.7-8.7,1.9-17.3,3.7-25.8c1.5-2.7,3.2-5.4,5.1-7.9c0.2-0.3,0.5-0.6,0.7-0.9c-7.4,20.5-8.9,42.7-4.3,64.1c0.2,0.8,1.4,0.5,1.2-0.3
		c-0.2-1.1-0.5-2.2-0.7-3.3c0.2-0.1,0.4-0.3,0.4-0.6c-0.4-8.9,0-17.8,1.2-26.5c1.5,14,3.1,28,4.6,42c0.1,0.8,1.4,0.8,1.3,0
		c-1.7-15.6-3.4-31.2-5.1-46.8c3-17.1,9.2-33.5,18.4-48.5c0.4-0.7-0.7-1.4-1.1-0.7c-8.5,13.9-14.4,29-17.7,44.8c0,0,0,0,0,0
		c-0.1-0.8-1.4-0.8-1.3,0c0.2,1.4,0.3,2.9,0.5,4.3c-1.4,8.2-2.2,16.5-2.1,24.9c-2.4-19.4,0.2-39.1,7.7-57.3
		c4.9-6.5,10-12.9,14.9-19.4c0.5-0.7-0.6-1.3-1.1-0.7c-3.7,4.9-7.6,9.7-11.4,14.5c0.1-0.1,0.1-0.2,0.2-0.4c0.4-0.7-0.8-1.4-1.1-0.7
		c-0.9,1.8-1.7,3.6-2.4,5.4c-1.9,2.6-3.8,5.3-5.6,8c2.7-5.8,6-11.4,10-16.5c0.5-0.6-0.4-1.6-0.9-0.9c-3.5,4.5-6.5,9.2-9,14.2
		c0.2-0.8,0.4-1.6,0.7-2.5c0.2-0.8-1-1.1-1.2-0.3c-0.9,3.1-1.6,6.1-2.3,9.2c-0.6,1.4-1.1,2.8-1.6,4.2c-0.3,0.6-0.5,1.2-0.8,1.8
		c0.6-6.5,1.7-12.9,3.2-19.3c8.1-8,17.5-14.9,26.5-21.3c-8,22.4-10.2,46.4-6.1,69.9c0.1,0.8,0.8,0.9,1.4,0.7c0,0,0,0,0,0
		c-0.2,0.6,0.5,0.9,0.9,0.7c0.2,2.6,0.5,5.2,0.9,7.8c0.2,1.4,2.3,0.8,2.1-0.6c-0.6-4.1-1-8.2-1.2-12.3c0.9-3,1.9-6,2.8-9
		c-0.1,2.1-0.1,4.1-0.1,6.2c0,0,0,0.1,0,0.1c-0.7,9.9-1.3,19.9-2,29.8c-0.1,0.8,1.2,0.8,1.3,0c0.8-11.9,1.6-23.8,2.4-35.7
		c0-0.3-0.1-0.4-0.3-0.5c0.1-1.7,0.2-3.5,0.4-5.2c0.7-2.3,1.4-4.6,2.2-6.9c2.3-7.4,6-15.3,5.6-23.2c0-0.5-0.4-0.7-0.8-0.6
		c3.3-8.8,7.6-17.3,12.9-25.1c-4.4,20.4-7.1,41.2-8,62.1c0,0.8,1.3,0.8,1.3,0c1-21.8,3.9-43.5,8.7-64.8c0.7-1,1.5-2,2.2-3
		c-4.4,11.2-6.8,23.1-7.1,35.1c-1.1,5.8-1.9,11.7-2.4,17.6c-0.1,0.8,1.2,0.8,1.3,0c0.3-3.4,0.8-6.9,1.3-10.3c0.1,1.7,0.2,3.4,0.4,5
		c0.1,0.8,1.4,0.8,1.3,0c-0.4-4.1-0.6-8.3-0.5-12.4C318.3,79,323.6,62,331,45.7c0.2-0.3,0-0.7-0.2-0.8c0.8-1.2,1.6-2.4,2.4-3.6
		c0.5-0.7-0.6-1.3-1.1-0.7c-3.7,5.3-6.8,10.9-9.5,16.8c-0.1,0-0.2,0.1-0.3,0.2c-1,1.2-2,2.5-2.9,3.7c0.3-1.1,0.5-2.3,0.8-3.4
		c0.2-0.8-1.1-1.2-1.2-0.3c-0.5,2.1-1,4.2-1.5,6.4c-12.4,17.3-20,37.7-21.9,58.8c-1.1,3.5-2.2,7.1-3.3,10.6
		c-0.1-9.1,0.7-18.2,2.5-27.1c7.5-27.5,22.4-52.6,43.1-72.3c0.6-0.6-0.3-1.5-0.9-0.9c-15.5,14.7-27.7,32.4-36.1,51.8
		c8.2-21.9,22.2-41.7,40.6-56.4c1.1-0.9-0.5-2.4-1.5-1.5c-27.5,22-44.9,54.9-48.9,89.6c-0.4,1.9-0.7,3.8-1,5.7
		c-0.1,0.4,0.2,0.6,0.4,0.7c-0.4,5.4-0.4,10.9,0,16.4c0,0.1-0.1,0.3-0.1,0.4c-4-23.8-1.5-48.3,7.2-70.8c0,0,0,0,0.1,0
		c0.4-0.3,0.5-0.8,0.4-1.2c0.4-1.1,0.9-2.1,1.3-3.2c0.5-1.3-1.3-2.4-1.9-1.1c-0.6,1.4-1.1,2.7-1.7,4.1c-9,6.3-18.5,13.1-26.9,20.9
		c0.2-1.2-1.8-1.7-2.1-0.4c-0.3,1.1-0.5,2.1-0.8,3.2c-7.1,7.1-13.3,14.9-17.3,23.9c-3,4-5.5,8.4-7.4,13.1c-1.5,3.7-2.6,7.5-3.3,11.2
		c0,0,0,0.1-0.1,0.2c0,0.1,0,0.3-0.1,0.4c-0.3,1.6-0.5,3.1-0.7,4.7c-2,14.1-3.9,28.2-5.9,42.3c-1.2-11.8-0.6-23.6,1.5-35.3
		c0-0.1,0.1-0.2,0.1-0.3c0.1-0.2,0.1-0.4,0-0.6c0.7-3.5,1.5-6.9,2.4-10.3c0.4-1.3-1.7-1.9-2.1-0.6c-1.3,4.6-2.3,9.3-3.1,14
		c-5,10.6-7.6,22-7.8,33.6c-0.3,7-0.1,14.1,0.4,21.1c-1.9-11.6-2.3-23.3-1.2-34.8c0.4-2.9,0.8-5.7,1.3-8.6c0-0.2,0-0.4-0.1-0.5
		c0.7-4.2,1.5-8.5,2.6-12.7c0.2-0.8-1-1.1-1.2-0.3c-1.9,7.2-3.1,14.6-3.8,22c-2,16-2.2,32.2-0.5,48.3c0.1,0.8,1.4,0.8,1.3,0
		c-1-8.9-1.3-17.9-1.1-26.8c0.3,4.6,0.8,9.3,1.5,13.9c0.1,0.8,1.3,0.5,1.2-0.3c0.9,10.3,2.7,20.5,5.4,30.5
		c-1.1,6.9-2.6,13.8-4.5,20.6c-0.2,0.8,1,1.1,1.2,0.3c1.7-5.9,3.1-11.9,4.1-17.9c0.4,1.3,0.8,2.6,1.2,3.9c0.3,0.8,1.5,0.5,1.2-0.3
		c-0.7-2.2-1.3-4.4-1.9-6.6c1.3-8.9,2-17.9,1.8-27c0-0.8-1.3-0.8-1.3,0c0,3.1,0,6.2-0.1,9.3c-0.5-3.9-1-7.8-1.3-11.6
		c0.3,0.1,0.7,0,0.7-0.4c0.6-4.3,1.2-8.6,1.8-12.9c0.6-0.1,1.2-0.6,1.1-1.3c-0.2-1-0.3-2.1-0.5-3.1c1.7-12,3.3-24,5-35.9
		c0.2,3.8,0.5,7.7,1.1,11.5c2.2,16,4.2,31.7,3.5,48c-0.5,12.7-2.3,25.3-5.3,37.6c-0.2-3.8-1-7.7-2.5-11.4c-0.3-0.8-1.6-0.4-1.2,0.3
		c2.1,5.3,2.9,11,2.4,16.5c-0.4,1.6-0.8,3.1-1.3,4.7c-0.3,0.2-0.5,0.4-0.8,0.6c0.4-3.4,0.1-7-1.1-10.5c-0.3-0.8-1.5-0.4-1.2,0.3
		c1.2,3.8,1.5,7.6,0.8,11.3c-1.4,1.1-2.7,2.2-4.1,3.2c1.4-4.3,2-8.9,2-13.5c0-0.8-1.3-0.8-1.3,0c0.1,5.3-0.8,10.3-2.6,15
		c-0.8,0.6-1.6,1.3-2.4,1.9c-0.2,0.1-0.4,0.1-0.7,0.2c-1.2-15.9-2.4-31.7-3.6-47.6c-0.1-0.8-1.4-0.8-1.3,0
		c0.5,7.1,1.1,14.1,1.6,21.2c-0.5-3.6-1.2-7.1-2.1-10.6c-0.2-0.8-1.5-0.5-1.2,0.3c3.4,12.9,3.8,26.1,1.2,39.1
		c-1.1,0.6-2.1,1.2-3.1,1.8c-0.5,0.3-0.3,1.2,0.3,1.2c0.6,0,1.1,0,1.7,0c-0.7,0.5-1.3,1-2,1.5c-0.6,0.1-1.2,0.2-1.8,0.3
		c-0.6,0.1-0.6,0.9-0.1,1.2c-1,0.8-2.1,1.6-3.1,2.4c0-0.1,0-0.2-0.1-0.3c0-0.1-0.1-0.2-0.1-0.3c4.2-7.4,5.4-15.7,3.4-24
		c-0.2-0.8-1.4-0.5-1.2,0.3c1.8,7.8,0.8,15.4-3,22.4c-0.3-0.2-0.8-0.2-1.1,0c-0.5,0.3-0.6,1-0.4,1.5c0.2,0.4,0.4,0.8,0.6,1.1
		c0.1,0.2,0.2,0.3,0.4,0.4c-1.8,1.4-3.6,2.7-5.4,4.1c0.1-1.2,0-2.4-0.4-3.6c-0.1-0.3-0.3-0.5-0.6-0.6c-1.1-9.7-2.3-19.4-3.4-29.1
		c0.3,0.4,1.1,0.2,1.1-0.4c0-15-0.1-29.9-0.1-44.9c0-0.8-1.3-0.8-1.3,0c0,14.6,0.1,29.2,0.1,43.9c-0.1-0.6-0.1-1.2-0.2-1.8
		c-0.1-0.8-1.4-0.8-1.3,0c1.3,10.8,2.6,21.7,3.8,32.5c-0.3,0.2-0.4,0.6-0.2,1c0.6,1.7,0.5,3.4-0.1,5c-2.4,1.8-4.8,3.6-7.2,5.4
		c0.2-1.8,0.4-3.6,0.6-5.4c0.2-1.4-2-1.4-2.2,0c-0.2,2.1-0.5,4.2-0.7,6.3c0,0.3,0,0.5,0.2,0.7c-1.2,0.9-2.4,1.8-3.6,2.6c0,0,0,0,0,0
		c-0.5-0.1-0.8,0.2-0.8,0.6c-1.3,0.9-2.6,1.9-3.8,2.8c0.2-2.3-0.2-4.7-1.2-6.9c-0.1-0.1-0.1-0.2-0.2-0.3c1.5-10.4,0.5-20.9-3.2-30.8
		c-0.1-0.2-0.2-0.3-0.3-0.4c-0.1-1.4-0.1-2.8-0.2-4.3c0.1-0.1,0.1-0.2,0.1-0.3c0.8-7.9,1.6-15.8,2.5-23.7c0.5-0.1,0.9-0.4,0.9-1
		c0.1-2.4,0.2-4.7,0.4-7.1c-0.3,9.4-0.1,18.9,0.4,28.3c0,0.8,1.3,0.8,1.3,0c-1.1-18.8-0.6-37.7,1.5-56.4c0.1-0.8-1.2-0.8-1.3,0
		c-0.2,1.9-0.4,3.8-0.6,5.7c-0.4-0.1-0.8,0.1-0.9,0.6c-0.1,1-0.2,2.1-0.3,3.1c-0.6-0.2-1.4,0.2-1.4,1c-0.1,2.4-0.3,4.9-0.4,7.3
		c-3.4,16.9-4.5,34.1-3.1,51.4c0.1,0.8,1.4,0.8,1.3,0c0-0.2,0-0.3,0-0.5c1.2,4,2,8.1,2.4,12.1c-0.5-0.1-1.1,0.1-1.2,0.7
		c-0.2,0.8-0.4,1.5-0.6,2.3c-0.3,1.3,1.7,1.9,2.1,0.6c0.1,3.7-0.1,7.5-0.7,11.2c-0.4,0.3-0.6,0.8-0.3,1.4c0,0.1,0.1,0.1,0.1,0.2
		c-0.2,1.1-0.4,2.2-0.7,3.2c-0.2,0.8,1.1,1.2,1.2,0.3c0.1-0.3,0.1-0.6,0.2-0.9c0.3,1.7,0.1,3.3-0.4,4.9c-1.9,1.4-3.7,2.7-5.6,4
		c1.8-8.2,1.5-16.7-0.8-24.8c-0.2-3.1-0.7-6.3-1.5-9.4c-0.2-0.8-1.5-0.5-1.2,0.3c0.4,1.4,0.7,2.8,0.9,4.2c-0.8-0.5-2,0.1-1.6,1.1
		c1,2.6,1.7,5.2,2.2,7.8c-0.2,5.9-1.5,11.8-3.9,17.4c-0.3,0.8,0.8,1.4,1.1,0.6c1.8-4.1,3-8.3,3.6-12.5c0.5,5.7,0,11.4-1.5,17
		c-2.1,1.5-4.2,3-6.3,4.5c0.8-3,1.1-6.2,0.7-9.4c0-0.3-0.1-0.5-0.3-0.6c0.8-6.8,1.6-13.7,2.3-20.5c0.1-0.8-1.2-0.8-1.3,0
		c-0.8,6.7-1.5,13.4-2.3,20.1c-0.4,0.1-0.7,0.4-0.6,1c0.1,1,0.2,1.9,0.2,2.9c-0.2,1.7-0.4,3.4-0.6,5.1c-0.3,1.2-0.7,2.4-1.1,3.6
		c-1.5,1.1-3,2.1-4.5,3.2c-0.1,0-0.2,0-0.4,0c-0.5,0-0.7,0.4-0.6,0.7c-2,1.4-4.1,2.9-6.1,4.3c0,0-0.1,0-0.1,0
		c1.5-3.1,2.4-6.4,2.6-9.8c0.2-0.1,0.4-0.3,0.4-0.6c0-2.9,0-5.7,0-8.6c0.1-0.1,0.3-0.2,0.4-0.3c2.9-4.2,4.6-8.6,5.7-13.2
		c0.3,8.9-0.7,17.9-3.2,26.6c-0.2,0.8,1,1.1,1.2,0.3c3-10.6,3.9-21.5,2.8-32.4c1.4-12.9-1.9-26.7-3.1-39.5c-0.7-7-0.3-13.8,1-20.4
		c1.3-3.7,3-7.3,5-10.7c0.4-0.7-0.7-1.4-1.1-0.7c-0.5,0.8-0.9,1.6-1.3,2.4c3-8,7.8-15.4,14.3-21.5c-2.9,5.9-4.8,12.3-5.5,18.8
		c-3.4,11-5.2,22.4-5.1,34c0,0.8,1.3,0.8,1.3,0c0-9.6,1.2-19.1,3.5-28.3c0,3,0.2,6,0.7,9c0,0.2,0.1,0.3,0.2,0.5
		c-0.8,5.3-1.3,10.6-1.3,16c0,0.8,1.3,0.8,1.3,0c0-5.3,0.4-10.6,1.2-15.8c0.4-0.2,0.7-0.6,0.6-1.2c-0.1-0.4-0.1-0.9-0.2-1.3
		c2.3-12.2,6.9-23.9,13.7-34.5c-3.7,15.5-1.7,32.4,0.8,48.6c0.2,1.4,2.3,0.8,2.1-0.6c-3.5-22.9-6.1-47.5,8.1-67.1
		c-0.2,0.9-0.4,1.8-0.5,2.7c-0.3,0.7-0.6,1.5-0.9,2.2c-0.2-0.5-1.1-0.6-1.2,0.1c-0.5,2.5-1,4.9-1.5,7.4c-3.9,12.5-5.3,25.7-4,38.9
		c-0.2,7.4,0,14.9,0.5,22.3c0.1,0.8,1.4,0.8,1.3,0c-0.4-6.3-0.6-12.6-0.6-18.9c0.2-0.1,0.4-0.3,0.4-0.6c-0.1-0.9-0.2-1.9-0.3-2.8
		c0.3-12.9,1.6-25.8,3.9-38.6c0.4-1.3,0.8-2.6,1.3-3.8c-1.5,9.6-2.7,19.4-3.4,29.1c-0.1,0.8,1.2,0.8,1.3,0
		c0.9-11.7,2.3-23.3,4.4-34.9c0.8-1.8,1.6-3.7,2.6-5.5c0.3-0.7-0.6-1.3-1-0.8c0.1-0.3,0-0.6-0.2-0.9c0.6-2.9,1.2-5.8,1.8-8.7
		c0.2-0.8-1.1-1.2-1.2-0.3c-0.6,2.9-1.2,5.7-1.8,8.6c-0.1,0.1-0.2,0.1-0.3,0.3c-5.2,6.4-8.6,13.3-10.7,20.5c-0.2,0-0.5,0-0.6,0.3
		c-6.8,10-11.6,21.1-14.3,32.7c-0.2-4.3,0.1-8.5,0.9-12.7c1.3-3.7,2.9-7.3,4.6-10.9c0.3-0.6-0.4-1.1-0.9-0.9c1.6-3.6,3.6-7,6-10.2
		c0.8-1.1-1-2.2-1.9-1.1c-0.8,1.1-1.5,2.1-2.2,3.2c-0.1,0-0.2,0.1-0.4,0.2c-13.3,10.3-21.6,25.8-23,42.4
		c-3.2,13.3-2.4,27.5,2.8,40.5c0.1,0.4,0.5,0.5,0.8,0.4c0.1,1.7,0.2,3.5,0.2,5.2c-0.3,0.1-0.5,0.4-0.4,0.7c0.1,0.8,0.2,1.5,0.4,2.3
		c-0.3,6.6-1.7,13-5.2,19.1c0-6.6-0.1-13.2-0.1-19.8c0.2-0.2,0.3-0.5,0.2-0.9c-0.1-0.4-0.2-0.8-0.3-1.2c0-0.8,0-1.6,0-2.4
		c0-0.4-0.3-0.6-0.6-0.6c-0.9-4.5-1.9-9-2.8-13.5c-0.3-1.4-2.4-0.8-2.1,0.6c1.2,5.9,2.5,11.9,3.7,17.8c0.1,0.4,0.3,0.6,0.5,0.7
		c0,3,0,5.9,0,8.9c-0.8-4.6-2.1-9-3.9-13.2c0-3.4-0.1-6.9-0.1-10.3c0-0.8-1.3-0.8-1.3,0c0,2.5,0,5,0.1,7.4c-2.4-4.8-5.4-9.3-9-13.4
		c-0.6-0.6-1.5,0.3-0.9,0.9c3.5,4,6.4,8.4,8.7,13c-0.4-0.4-0.7-0.8-1.2-1.1c-1.1-0.9-2.6,0.7-1.5,1.5c3.2,2.6,4.1,6.9,2.2,10.5
		c-0.7,1.2,1.1,2.3,1.8,1.1c0.1,9.3,0.2,18.6,0.3,28c-0.6,2.9-1.4,5.8-2.3,8.7c-0.3,0.8,1,1.1,1.2,0.3c0.9-2.8,1.6-5.6,2.2-8.4
		c0.1-0.1,0.1-0.2,0.1-0.4c0-0.1,0-0.1,0-0.2c0.4-1.7,0.6-3.4,0.9-5.1c0.2,0.3,0.4,0.6,0.9,0.6c0.2,0,0.4,0,0.7,0
		c0.2,5.5-1.2,10.7-4.2,15.4c-0.1,0.2-0.2,0.4-0.2,0.6c-0.6,0.4-1.2,0.8-1.8,1.3c-0.3,0-0.5,0-0.8,0c-0.6,0-0.7,0.6-0.5,0.9
		c-1.8,1.3-3.6,2.5-5.4,3.8c0.1-0.1,0.1-0.2,0.2-0.3c3.9-9.5,5.7-19.5,5.5-29.6c0.4-4.4,0.5-8.8,0.4-13.2c0-0.8-1.3-0.8-1.3,0
		c0.1,2.9,0.1,5.8,0,8.7c-0.6-0.2-1.4,0.1-1.3,1c0.3,4,0.3,8-0.1,12c-1,5.7-2.5,11.4-4.5,16.9c-0.2,0.5,0.2,0.7,0.6,0.8
		c-0.4,1-0.7,1.9-1.1,2.9c-0.4,0.9,0.6,1.5,1.4,1.2c-1.7,1.2-3.4,2.3-5.1,3.5c-0.1,0-0.3,0-0.4,0c-0.5,0-0.7,0.4-0.6,0.7
		c-0.7,0.5-1.3,0.9-2,1.4c6.2-16.9,6.6-35.3,0.9-52.4c-0.4-1.3-2.5-0.7-2.1,0.6c5.5,16.7,5.2,34.6-0.9,51c0-1.1-0.3-2.2-0.8-3.1
		c0.1-0.1,0.2-0.2,0.2-0.4c1-8.7,0.2-17.2-2.6-25.5c-0.3-0.8-1.5-0.4-1.2,0.3c2.6,7.9,3.5,16,2.7,24.3c-0.3-0.3-0.6-0.5-1-0.8
		c-0.9-0.5-1.6,0.3-1.6,1.1c-0.2,0.2-0.3,0.5-0.2,0.9c0.4,2.3,0.3,4.5-0.2,6.7c-1.1-1.7-2.1-3.5-3-5.3c0-2.6-0.3-5.2-0.9-7.8
		c0.5-8-1.3-16.1-5.2-23.4c-0.4-0.7-1.5-0.1-1.1,0.7c3.1,5.7,4.8,11.9,5.1,18.2c-0.4-1.1-0.8-2.2-1.3-3.3c-0.3-0.7-1-0.7-1.5-0.3
		c-1.7-8-3.3-16-4.9-24.1c-0.2-0.8-1.4-0.5-1.2,0.3c1.9,9.3,3.5,18.7,5.8,27.9c0.7,2.9,1.5,5.8,2.6,8.5c-0.4,2.2-0.9,4.4-1.7,6.6
		c-0.3,0.8,1,1.1,1.2,0.3c0.4-1.2,0.7-2.4,1-3.6c0.1,4-0.5,8-1.8,11.8c-1.5,1-3,2-4.4,3c1.4-3.7,1.7-7.6,0.8-11.5
		c-0.1-0.6-0.8-0.8-1.3-0.8c-0.7,0.1-1.4,0.2-2.1,0.3c-1.4,0.2-0.8,2.3,0.6,2.1c0.3-0.1,0.6-0.1,0.9-0.2c0.7,4,0,7.9-1.9,11.5
		c-0.1,0.2-0.2,0.4-0.1,0.6c-1.9,1.3-3.8,2.5-5.7,3.8c-0.1,0-0.2,0-0.3,0c-0.4,0-0.6,0.3-0.6,0.6c-2,1.3-4,2.7-6.1,4
		c-1.4,0-2.8,0-4.3,0c-0.8,0-0.8,1.3,0,1.3c0.8,0,1.5,0,2.3,0c-1.4,0.9-2.7,1.8-4.1,2.7c-0.2,0-0.3,0-0.5,0.1
		c-0.1,0-0.2,0.1-0.3,0.1c0.4-1.3,0.8-2.6,1.2-3.8c0.3-0.8-1-1.1-1.2-0.3c-0.6,1.9-1.2,3.8-1.9,5.8c-9,5.9-18,11.8-27.1,17.6
		c-0.4,0-0.8,0.1-1.2,0.1c-0.5,0.1-0.7,0.6-0.6,1c-7.4,4.8-14.8,9.5-22.2,14.2c-0.5,0-0.9,0-1.4,0c-0.6,0-0.8,0.8-0.4,1.1
		c-3.4,2.1-6.7,4.3-10.1,6.4c-0.1,0-0.3,0-0.4,0c-0.4,0-0.6,0.3-0.6,0.7c-1.3,0.8-2.6,1.7-4,2.5c-0.3-0.1-0.7-0.2-1-0.3
		c-0.8-0.2-1.1,0.9-0.4,1.2c-4.2,2.7-8.4,5.3-12.7,8c0,0-0.1,0-0.1,0.1c-0.2,0-0.3,0.1-0.4,0.3c-4,4-0.8,10.3,4.5,10.1
		c0.2,0.1,0.5,0.1,0.8-0.1c0,0,0,0,0.1,0c0.1,0,0.2-0.1,0.3-0.1c25.3-11.6,49.5-25.6,72.9-40.7c5.3,2,9.1,6.9,9.5,12.6
		c0.1,0.8,1.4,0.8,1.3,0c-0.5-6-4.2-11-9.5-13.4c7.4-4.8,14.8-9.8,22-14.8c4,1.1,7.9,2.2,11.9,3.3c1.3,0.4,1.9-1.7,0.6-2.1
		c-3.4-0.9-6.8-1.9-10.2-2.8c1.1-0.7,2.2-1.5,3.2-2.2c2.3-1.6,4.6-3.3,7-4.9c3.2,1.4,6.4,2.8,9.6,4.2c1.3,0.6,2.4-1.3,1.1-1.9
		c-2.9-1.3-5.8-2.5-8.6-3.8c0.7-0.5,1.5-1,2.2-1.6c1.5,0.6,3.1,1.1,4.6,1.7c9.9,4.5,18.8,10.8,26.4,18.7c0.6,0.6,1.5-0.3,0.9-0.9
		c-2.1-2.2-4.3-4.3-6.6-6.2c4.3,2.3,8.8,4.2,13.6,5.7c0.8,0.3,1.1-1,0.3-1.2c-8.7-2.8-16.7-6.9-24.1-12.3c0.9-0.1,1.2-1.7,0.1-2.1
		c-4.4-1.6-8.7-3.2-13.1-4.7c1.4-1,2.7-2,4.1-2.9c0.1,0.2,0.3,0.4,0.6,0.5c4.4,1.6,8.8,3.2,13.2,4.8c1.3,0.5,1.9-1.6,0.6-2.1
		c-4.2-1.5-8.3-3-12.5-4.5c3.8-2.7,7.5-5.5,11.3-8.2c0.1,0.3,0.3,0.7,0.7,0.8c2.8,1.1,5.6,2.2,8.4,3.5c-3.4-1-6.9-1.8-10.6-2.2
		c-0.8-0.1-0.8,1.2,0,1.3c12.3,1.4,23.6,6.6,32.6,14.9c-2.5-0.3-4.9-0.6-7.4-0.9c-8-5-16.3-9.4-24.9-13.2c-0.8-0.3-1.4,0.8-0.7,1.1
		c7.7,3.4,15.2,7.4,22.4,11.7c-4-0.5-7.9-0.9-11.9-1.4c-1.4-0.2-1.4,2,0,2.2c5.4,0.6,10.8,1.3,16.2,1.9c4.2,2.7,8.2,5.5,12.2,8.4
		c0.7,0.5,1.3-0.6,0.7-1.1c-3.2-2.4-6.6-4.7-9.9-7c9.2,1.1,18.3,2.2,27.5,3.3c1.4,0.2,1.4-2,0-2.2c-6.6-0.8-13.2-1.6-19.8-2.4
		c0.2-0.4,0.2-0.8-0.3-1.1c-10.3-8-21.5-14.3-33.7-18.9c0.6-0.4,1.2-0.9,1.8-1.3c30.9-1.9,62.6,13.9,92.5,0.8
		c1.3-0.6,0.2-2.4-1.1-1.9c-28.3,12.5-58.9-1.9-88.3-1.2c2.2-1.6,4.3-3.2,6.5-4.8c-0.2,0.6,0.1,1.4,1,1.4c8.8-0.3,17.6-0.7,26.5-1
		c1.4-0.1,1.4-2.2,0-2.2c-8.8,0.3-17.6,0.7-26.4,1c0.6-0.4,1.1-0.8,1.7-1.3c9-1.2,17.9-2.3,26.9-3.5c6.5,0.6,12.9,0.9,19.4,0.9
		c22.4,3.9,45.5,1.9,66.9-5.9c1.3-0.5,0.7-2.6-0.6-2.1c-16.9,6.1-34.8,8.7-52.5,7.5c0.2-0.2,0.3-0.4,0.2-0.7
		c14.2,0,28.3-1.7,42.1-5.2c0.8-0.2,0.5-1.5-0.3-1.2c-16.9,4.3-34.2,5.9-51.5,4.8c-0.8-0.1-0.8,1.2,0,1.3c0.8,0.1,1.6,0.1,2.4,0.1
		c-0.4,0-0.9,0-1.3,0c-5.5-0.7-10.9-1.8-16.3-3.2c-1.3-0.4-1.9,1.7-0.6,2.1c1.4,0.4,2.9,0.7,4.3,1.1c-3.2-0.1-6.3-0.3-9.5-0.5
		c0.2-0.7-0.1-1.4-1-1.3c-1.8,0.2-3.7,0.5-5.5,0.7c-4.6-0.5-9.2-1.1-13.8-1.9c5.1-3.9,10.2-7.8,15.3-11.7c0.2,0.1,0.3,0.2,0.6,0.2
		c0,0,0,0,0,0c-0.1,0.4,0.1,0.8,0.6,0.8c3.6,0.1,7.2,0.2,10.7,0.3c3.1,0.3,6.3,0.6,9.4,0.9c0.5,0.1,0.8-0.2,1-0.6
		c4.1,0.1,8.2,0.3,12.3,0.4c-13.2,0.9-26.5,1.8-39.7,2.7c-0.8,0.1-0.8,1.4,0,1.3c15.3-1,30.7-2.1,46-3.1c0.4,0,0.6-0.3,0.6-0.7
		c0.7,0,1.5,0,2.2,0.1c0.8,0,0.8-1.3,0-1.3c-7.3-0.2-14.6-0.4-21.8-0.7c-0.2-0.1-0.3-0.2-0.6-0.3c-6.2-0.6-12.4-1.2-18.6-1.8
		c0-0.1,0-0.2-0.1-0.3c0.9-0.7,1.8-1.4,2.8-2.1c-0.2,0.6,0.1,1.5,1,1.4c3.8-0.2,7.7-0.3,11.5-0.5c6.7,1.1,13.3,2.2,20,3.3
		c0.8,0.1,1.2-1.1,0.3-1.2c-6.1-1-12.1-2-18.2-3c0.1-0.6-0.2-1.3-1-1.3c-4.2,0.2-8.4,0.3-12.7,0.5c0,0,0,0,0,0
		c5.6-4.4,11.2-8.7,16.8-13.1c2.4-1.9,4.7-3.7,7.1-5.6c0.4-0.1,0.9-0.2,1.3-0.3c0.4-0.1,0.5-0.5,0.4-0.8c12-1.2,23.9-2.5,35.9-3.7
		c0.8-0.1,0.8-1.4,0-1.3c-11.5,1.2-22.9,2.4-34.4,3.6c0.4-0.3,0.8-0.6,1.2-0.9c1-0.2,2.1-0.4,3.1-0.6c0.7-0.1,0.5-1.3-0.2-1.3
		c-0.2,0-0.4,0-0.7,0c1.3-1,2.5-2,3.8-3.1c0.4-0.1,0.8-0.2,1.2-0.2c0.5-0.1,0.6-0.6,0.3-1c0.3-0.2,0.6-0.5,0.9-0.7
		c1.2-0.1,2.5-0.3,3.7-0.4c0.8-0.1,0.9-1.3,0-1.3c-0.5,0-1.1,0-1.6,0c0.9-0.7,1.7-1.4,2.6-2.1c7.1-1.2,14.3-1.6,21.5-1.3
		c-0.5,0.2-0.6,1.1,0,1.2c21.6,4,43.7,2.9,64.8-3.2c0.2-0.1,0.4-0.2,0.4-0.4c2.5-0.4,4.9-0.8,7.4-1.1c-0.5,0.6-1.1,1.2-1.7,1.8
		c-3.1,0.7-6.3,1.4-9.4,2.1c-1.4,0.3-0.8,2.4,0.6,2.1c2-0.4,3.9-0.9,5.8-1.3c-12.5,11-30,15.7-46.5,11.9c-1.4-0.3-1.9,1.8-0.6,2.1
		c18.4,4.2,37.9-1.7,51.1-14.9c0.2,0,0.3-0.1,0.5-0.1c0.6-0.1,0.8-0.7,0.7-1.2c0.9-1,1.8-2,2.6-3c0.6-0.1,1.3-0.2,1.9-0.3
		c1.4-0.2,0.8-2.3-0.6-2.1c-0.1,0-0.2,0-0.3,0c-0.4-0.5-1.4-0.7-1.9,0c-0.1,0.1-0.2,0.2-0.3,0.3c-7,1.1-14.1,2.2-21.1,3.3
		c-1.4,0.2-0.8,2.3,0.6,2.1c0.1,0,0.1,0,0.2,0c-17.5,3.7-35.6,4-53.3,0.8c3.9,0.2,7.8,0.7,11.7,1.4c0.8,0.1,1.2-1.1,0.3-1.2
		c-10.9-2-21.8-2.2-32.7-0.6c19.3-15.8,38.1-32.2,56.4-49.1c0,0.3,0.2,0.7,0.6,0.7c17.8-1.2,35.7-2.4,53.5-3.6
		c0.8-0.1,0.8-1.3,0-1.3c-17.5,1.2-34.9,2.4-52.4,3.5c0.1-0.2,0-0.5-0.2-0.7c1.3-1.2,2.7-2.4,4-3.7c0.2-0.2,0.4-0.4,0.7-0.6
		c10.3-0.8,20.5-1.7,30.8-2.5c0.8-0.1,0.8-1.4,0-1.3c-9.7,0.8-19.5,1.6-29.2,2.4c0.1-0.1,0.1-0.1,0.2-0.2c0.5-0.1,1.1-0.2,1.6-0.4
		c0.6-0.2,0.6-1,0.1-1.2c0.7-0.7,1.4-1.3,2.1-2c0.8-0.2,1.5-0.4,2.3-0.6c0.8-0.2,0.5-1.2-0.2-1.3c0,0-0.1,0-0.1,0
		c4.4-4.2,8.7-8.4,13.1-12.6c0.1,0,0.3-0.1,0.4-0.1c0.4-0.1,0.5-0.4,0.4-0.7c0.3-0.3,0.7-0.7,1-1c0.1,0.1,0.2,0.1,0.3,0.1
		c9.4-0.3,18.8-0.7,28.2-1c0.8,0,0.8-1.3,0-1.3c-9.1,0.3-18.2,0.7-27.3,1c0.2-0.2,0.5-0.4,0.7-0.7c0.2-0.1,0.5-0.1,0.7-0.2
		c0.4-0.1,0.5-0.5,0.4-0.9c0.8-0.8,1.7-1.7,2.5-2.6c0.1,0,0.1-0.1,0.1-0.1c1.5-1.5,3-3,4.5-4.6c0.5-0.2,0.9-0.4,1.4-0.5
		c0.5-0.2,0.5-0.8,0.3-1.1c0.8-0.8,1.6-1.6,2.3-2.4c0.8-0.3,1.6-0.6,2.4-0.8c0.8-0.3,0.4-1.5-0.3-1.2c0,0-0.1,0-0.1,0
		c0.6-0.6,1.2-1.2,1.8-1.9c3,0.8,6.1,1.2,9.1,1.4c0.2,0.3,0.4,0.6,0.9,0.6c2.1,0.1,4.2,0.2,6.3,0.3c-0.1,0.4,0.1,0.8,0.6,0.8
		c2.6-0.1,5.2-0.2,7.8-0.4c4,0.2,8.1,0.4,12.1,0.6c-1.6,0.6-3.3,1.3-4.9,1.9c-0.8,0.3-0.4,1.6,0.3,1.2c2.6-1,5.1-2,7.7-3
		c2.1,0.1,4.2,0.2,6.3,0.3c1.4,0.1,1.4-2.1,0-2.2c-0.5,0-0.9,0-1.4-0.1c1.3-0.5,2.7-1,4-1.6c5.3-0.9,10.7-2,16-3.2
		c0.8-0.2,0.5-1.4-0.3-1.2c-3.1,0.7-6.2,1.4-9.3,2c3.7-1.4,7.3-2.9,11-4.3c0.2-0.1,0.3-0.2,0.4-0.4c5.7-2.2,11.2-5,16.4-8.3
		c1.2-0.7,0.1-2.6-1.1-1.9c-15.8,10-34.1,15-52.9,14.5c-1.4,0-1.4,2.1,0,2.2c8.1,0.2,16.2-0.6,24-2.3c-1.5,0.6-3,1.2-4.5,1.8
		c-5.6,0.9-11.2,1.7-16.9,2.2c-3.2-0.2-6.4-0.3-9.6-0.5c1.6-0.4,3.3-0.8,4.9-1.3c0.8-0.3,0.4-1.5-0.3-1.2c-3.8,1.2-7.6,2-11.5,2.2
		c-1.7-0.1-3.4-0.2-5-0.2c-0.3,0-0.6,0.1-0.7,0.3c-2.6-0.1-5.3-0.5-7.9-1.1c0.1,0,0.1,0,0.2-0.1c0.4-0.2,0.5-0.6,0.4-0.9
		c0.8-0.8,1.6-1.7,2.3-2.5c0,0,0.1,0,0.1-0.1c0.3-0.1,0.4-0.3,0.4-0.6c0.4-0.4,0.7-0.8,1.1-1.2c8.7,1.4,17.5,1.1,26.2-1
		c0.8-0.2,0.5-1.4-0.3-1.2c-8.2,2-16.5,2.3-24.7,1.1c0.3-0.3,0.5-0.6,0.8-0.9c0.4-0.1,0.8-0.2,1.2-0.4c0.6-0.2,0.5-0.9,0.2-1.2
		c1-1.1,2-2.2,3-3.3c0.4-0.2,0.7-0.4,1.1-0.5c0.4-0.2,0.4-0.6,0.2-0.9c3.1-3.4,6.1-6.9,9.1-10.4c0.2-0.1,0.3-0.2,0.5-0.2
		c0.3-0.2,0.4-0.4,0.3-0.7c0.3-0.4,0.6-0.7,0.9-1.1c0.5-0.2,1-0.4,1.4-0.6c0.6-0.2,0.5-1,0.1-1.2c4.6-5.5,9.1-11.1,13.5-16.8
		c2.5-3.2,4.9-6.4,7.3-9.6c0.1,0.3,0.4,0.5,0.8,0.4c13.5-3.5,27-7.1,40.5-10.6c0.7-0.2,0.5-1,0-1.2c5.3-1.6,10.6-3.5,15.8-5.5
		c0.2,0.2,0.6,0.4,1,0.2c4.8-1.7,9.6-3.4,14.4-5.1c1.3-0.5,0.7-2.5-0.6-2.1c-0.4,0.1-0.8,0.3-1.3,0.4c0.1-0.4-0.2-0.9-0.8-0.7
		c-6.3,2.2-12.6,4.1-19.1,5.9c0.3-0.4,0-1.2-0.7-1c-14.7,3.7-29.4,7.4-44.1,11c3.4-4.7,6.7-9.4,10-14.2c0,0.4,0,0.7,0,1.1
		c0,0.8,1.3,0.8,1.3,0c0-1,0-2,0-2.9c3-4.3,5.9-8.7,8.8-13.1c0.8-0.1,1.6-0.3,2.3-0.4c-0.1,1.1-0.2,2.2-0.3,3.2
		c-0.1,0.8,1.2,0.8,1.3,0c0.1-1.2,0.2-2.3,0.3-3.5c1.7-0.3,3.4-0.6,5.1-1c1.4-0.3,0.8-2.3-0.6-2.1c-1.4,0.3-2.9,0.5-4.3,0.8
		c0.1-1.2,0.2-2.4,0.3-3.6c0.1-0.1,0.1-0.2,0.2-0.3c0.2,0.2,0.6,0.3,0.9,0.2c3.8-1.2,7.7-2.3,11.5-3.5c0.9-0.3,0.9-1.4,0.4-1.9
		c4.1-1.1,8.3-2.2,12.4-3.3c1.3-0.4,0.8-2.4-0.6-2.1c-7.2,1.9-14.4,3.8-21.5,5.7c1-1.6,2-3.2,3-4.7c1.3-1.9,2.5-3.8,3.8-5.7
		c0.2,0.1,0.5,0.2,0.8,0.1c5.7-2.1,11.5-4.2,17.2-6.4c1.3-0.5,0.7-2.6-0.6-2.1c-5.3,2-10.6,3.9-15.9,5.9c3.1-4.8,6.1-9.7,9.1-14.6
		c5.3-4.2,10.5-8.4,15.8-12.6c0.6-0.5-0.3-1.4-0.9-0.9c-4.3,3.5-8.6,6.9-13,10.4c0.8-1.4,1.6-2.8,2.4-4.2c4.2-3.5,8.4-7,12.5-10.5
		c0.5-0.4,1.1-0.8,1.5-1.3c0.8-0.7,1.6-1.4,2.5-2c0.3-0.3,0.2-0.7,0-0.9c1-1.6,1.7-3.3,2.1-5.2c0.3-1.4-1.8-1.9-2.1-0.6
		c-0.7,3.8-3,7-6.3,9c-0.7,0.4-0.6,1.1-0.3,1.6c-2.7,2.2-5.3,4.4-8,6.7c1.8-3.2,3.7-6.5,5.4-9.8c2.9-3,4.4-7,4.3-11.2
		c-0.1-1.4-2.2-1.4-2.2,0c0.1,2.8-0.6,5.5-2.1,7.8c-0.3,0-0.7,0.2-0.9,0.5c-0.3,0.6-0.7,1.1-1,1.7c-0.2,0.2-0.5,0.5-0.7,0.7
		c-0.4,0.3-0.4,0.7-0.3,1c-2.7,4.7-5.5,9.3-8.2,14c-0.4,0.4-0.9,0.7-1.3,1.1c-0.4,0.3-0.2,0.7,0.1,0.9c-5,8.3-10,16.6-15.1,24.8
		c-0.6,0.9-1.2,1.7-1.8,2.6c1.8-7.1,2.5-14.3,2.2-21.7c0-0.8-1.3-0.8-1.3,0c0.5,8.6-0.7,17.1-3.3,25.2c-0.1,0.2-0.2,0.3-0.3,0.5
		c1-10.5,2-21,3-31.4c0.3,0,0.7-0.2,0.7-0.6c0.4-3.4,1-6.7,1.9-10c-0.5,2.3-0.8,4.7-0.9,7.1c0,0.8,1.2,0.8,1.3,0
		c0.6-9.9,3.9-19.2,9.8-27.3c0.5-0.7-0.6-1.3-1.1-0.7c-0.7,0.9-1.3,1.9-1.9,2.8c1.1-1.9,2.2-3.8,3.5-5.7c0.6,0.3,1.4,0.2,1.6-0.6
		c0.7-2.5-0.4-5.2-2.6-6.6c-1.2-0.7-2.3,1.1-1.1,1.9c1.2,0.8,1.9,2.2,1.7,3.6c0,0,0,0,0,0c-5.8,8.4-9.8,17.6-12,27.5
		c0-0.5,0.1-0.9,0.1-1.4c0.1-0.8-1.2-0.8-1.3,0c-1.4,14.2-2.7,28.4-4.1,42.6c-0.4,0.3-0.4,0.8-0.3,1.2c-1.9,2.7-3.8,5.3-5.7,8
		c1.2-3.7,2.1-7.5,2.6-11.4c0.1-0.8-1.2-0.8-1.3,0c-0.7,5.4-2.1,10.5-4.2,15.3c-1.1,1.5-2.1,2.9-3.2,4.4c0-2.4,0-4.8,0-7.2
		c0.1,1,0.3,2,0.4,3c0.2,1.4,2.3,1.4,2.2,0c-0.3-2.3-0.6-4.6-0.9-6.9c-0.1-0.5-0.4-0.8-0.9-1c1.3-8,2.5-16,3.8-24.1
		c0.1-0.8-1.1-1.2-1.2-0.3c-1.1,7-2.2,14-3.3,21.1c0-8.2,0-16.3,0-24.5c0.3,0.4,0.5,0.8,0.8,1.3c0,0.4,0,0.8,0,1.1
		c0,1.4,2.1,1.4,2.2,0c0-0.2,0-0.5,0-0.7c0.2-0.3,0.3-0.6,0-1c0.7-17.4,4.5-34.3,11.5-50.3c-1.3,8.1-2.5,16.2-3.8,24.2
		c-2.1,5.9-4.1,11.9-6.2,17.8c-0.3,0.8,1,1.1,1.2,0.3c1.3-3.7,2.5-7.3,3.8-11c-1.1,6.8-2.1,13.6-3.2,20.4c-0.1,0.8,1.1,1.2,1.2,0.3
		c1.4-9.2,2.9-18.4,4.3-27.5c0.8-2.2,1.5-4.4,2.3-6.6c-0.7,7.7-1.5,15.4-2.2,23.1c-0.1,0.8,1.2,0.8,1.3,0c0.9-9.4,1.8-18.8,2.7-28.3
		c1.3-3.7,2.6-7.5,3.9-11.2c0.2,1.1,0.4,2.3,0.5,3.4c0.2,1.4,2.3,0.8,2.1-0.6c-0.3-2.1-0.7-4.2-1-6.4c0-0.2-0.1-0.4-0.2-0.5
		c0.5-1.4,1-2.8,1.5-4.3c0.3-0.8-1-1.1-1.2-0.3c-0.5,1.5-1.1,3-1.6,4.6c-0.3,0.2-0.6,0.6-0.5,1.1c0,0.1,0,0.1,0,0.2
		c-1,2.8-2,5.7-2.9,8.5c0.6-5.9,1.1-11.7,1.7-17.6C416.1-0.8,414.8-0.7,414.7,0.1z M373.9,186.6c1.1-0.1,2.2-0.3,3.3-0.4
		c-0.4,0.2-0.9,0.3-1.3,0.5C375.2,186.7,374.5,186.6,373.9,186.6z M197.5,173.3c0.1-0.1,0.1-0.2,0.2-0.2c-0.1,0.2-0.2,0.3-0.2,0.5
		C197.4,173.4,197.5,173.3,197.5,173.3z M157.4,273.3c-3.6-9.7-4.7-20.1-3.6-30.2C154.2,252.9,156.5,263.2,157.4,273.3z M176.1,249
		c0.2-6.7,0.8-13.4,1.7-20c-0.1,2.1-0.2,4.3-0.3,6.4c0,0,0,0.1,0,0.1C177.1,240,176.6,244.5,176.1,249z M229.1,159.6
		c-3.1,20.8-3.3,41.8-0.3,62.6c0.1,0.7,0.9,0.6,1.2,0.1c-0.2,4.6-0.6,9.1-1.2,13.7c-2.8-10.9-4.4-22-5-33.1c0.4,0.4,1.2,0.1,1.1-0.6
		c-0.8-4.7-1.2-9.5-1.2-14.2c0.1-2.9,0.3-5.7,0.5-8.6c0-0.1,0-0.1,0-0.2C224.9,172.5,226.6,166,229.1,159.6z M230.1,195
		c-0.6,4-1.1,8-1.7,12c-0.7-10.2-0.7-20.3,0.1-30.5C228.6,182.7,229.1,188.9,230.1,195z M327.7,49.9c-5.1,12-9.1,24.3-11.9,36.9
		C317.3,73.9,321.4,61.4,327.7,49.9z M297.7,116c1.1-7.6,3-15.1,5.6-22.4C303.4,101.1,300,108.9,297.7,116z M265,115.3
		c-0.4,2.4-0.8,4.9-1.1,7.3c0-1,0-2,0.1-3.1C264.3,118.2,264.7,116.7,265,115.3z M265,95.2c-0.2,1.1-0.4,2.2-0.6,3.3
		c-0.2-0.5-1.1-0.6-1.2,0c-0.1,0.5-0.2,1.1-0.3,1.6c-0.3,0.5-0.5,1-0.8,1.5c-2.4,1.7-4.6,3.6-6.7,5.7C258.1,103.1,261.4,99,265,95.2
		z M254.1,111.6c1.8-2,3.7-3.8,5.7-5.5c-3.9,8.8-6.4,18.2-7.2,27.7c0.2-7.2,0.8-14.4,1.7-21.5C254.4,112,254.3,111.8,254.1,111.6z
		 M243.4,139.4c0.1,21.9,10.9,43.7,8.7,65.3c-3-6.6-5.3-13.4-7-20.3c-0.9-9.3-1.8-18.7-2.6-28c0-0.3-0.3-0.5-0.5-0.6
		C242.1,150.3,242.5,144.8,243.4,139.4z M292.5,200.7c0.2-1.6,0.3-3.2,0.4-4.8c0,1,0.1,2,0.1,3C292.8,199.4,292.6,200,292.5,200.7z
		 M409.3,90.1c-0.3,0.1-0.6,0.1-0.9,0.2c0.4-0.6,0.7-1.1,1.1-1.7C409.4,89.1,409.3,89.6,409.3,90.1z M396.6,101.6
		c-0.1,0.1-0.1,0.2-0.2,0.3c-0.4-1.7-0.8-3.4-1.3-5.1c0.5-1.2,1-2.3,1.5-3.5C396.6,96.1,396.6,98.9,396.6,101.6z M394.7,103.9
		c0,0.1,0.1,0.2,0.1,0.3c-1.9,2.5-3.9,5-5.8,7.5c1.6-3.8,3.2-7.7,4.8-11.5C394,101.4,394.4,102.6,394.7,103.9z M383.4,122.8
		c-0.3,0.1-0.5,0.1-0.8,0.2c1.9-2.3,3.8-4.6,5.6-7C386.7,118.3,385.1,120.6,383.4,122.8z M381.3,124.7c0.3-0.1,0.6-0.2,0.9-0.2
		c-0.7,1-1.4,2-2.2,3c-0.3,0.4-0.6,0.8-0.9,1.2c0.2-0.7,0.3-1.3,0.5-2C380.2,126,380.8,125.3,381.3,124.7z M381.3,129.3
		c1.4-1.9,2.8-3.8,4.2-5.7c5.6-1.4,11.2-2.8,16.8-4.2c0.1,0.1,0.3,0.2,0.6,0.2c12.4-2.1,24.7-5,36.7-8.6c-0.5,0.2-0.9,0.3-1.4,0.5
		c-0.3,0.1-0.5,0.3-0.6,0.6c-13.8,5.3-28,9.3-42.5,12.2c-0.8,0.2-0.5,1.4,0.3,1.2c1-0.2,2-0.4,3.1-0.6
		C392.7,126.3,387,127.8,381.3,129.3z M354.6,155.3c0.5-0.3,1-0.6,1.4-0.8c-0.2,0.9-0.4,1.7-0.6,2.6c-0.1,0.4,0.1,0.7,0.4,0.8
		c-0.1,0.1-0.2,0.2-0.3,0.3c-1.6,0.6-3.2,1.3-4.8,1.9c-0.8,0.3-0.4,1.6,0.3,1.2c0.9-0.3,1.7-0.7,2.6-1c-0.1,0.1-0.2,0.2-0.3,0.3
		c-2.3,1.2-4.7,2.4-7,3.6c0-0.1,0-0.1,0.1-0.2c0.8-0.8,1.5-1.6,2.3-2.4c0.2,0.5,1,0.5,1.2-0.1c0.1-0.5,0.2-1,0.3-1.5
		C351.7,158.4,353.2,156.9,354.6,155.3z M358.9,154.3c-0.7,0.8-1.3,1.6-2,2.4c0.2-1,0.5-2,0.7-3.1c0.2-0.1,0.5-0.3,0.7-0.4
		c0,0.1,0,0.2-0.1,0.3C358.1,154,358.5,154.3,358.9,154.3z M359.8,152.3c0.5-0.3,0.9-0.5,1.4-0.8c-0.6,0.7-1.1,1.3-1.7,2
		C359.7,153.1,359.7,152.7,359.8,152.3z M336.4,177c1.4-0.7,2.9-1.4,4.3-2.1c-0.5,0.5-1,1.1-1.5,1.6c-2.3,0.7-4.7,1.4-7,2.1
		c2.4-2.5,4.9-4.9,7.3-7.4c-0.1,0.4,0.4,1,1,0.7c1.7-0.9,3.5-1.7,5.2-2.6c-0.9,1-1.8,2-2.7,3c-2.4,1.2-4.8,2.3-7.3,3.5
		C335,176.2,335.7,177.3,336.4,177z M331.7,182c0.1-0.6,0.1-1.3,0.2-1.9c1.8-0.5,3.6-1.1,5.4-1.6c0,0,0.1,0.1,0.1,0.1
		c-0.6,0.7-1.2,1.3-1.9,2C334.2,181.1,333,181.6,331.7,182z M331.5,184.5c0,0,0-0.1,0-0.1c0-0.3,0-0.6,0.1-0.9
		c0.6-0.2,1.3-0.5,1.9-0.7c-0.5,0.5-1,1-1.5,1.6C331.8,184.4,331.7,184.4,331.5,184.5z M316.7,198.7c0-0.3,0-0.7-0.1-1
		c0.7,0.1,1.4,0.1,2,0.2C318,198.2,317.4,198.4,316.7,198.7z M318.4,196.6c0.9-0.4,1.9-0.8,2.8-1.1c-0.4,0.4-0.8,0.9-1.3,1.3
		C319.4,196.7,318.9,196.6,318.4,196.6z M316.5,200.2c-0.1,0-0.1,0-0.2,0c0.1,0,0.2-0.1,0.3-0.1
		C316.5,200.2,316.5,200.2,316.5,200.2z M312.8,203.9c-0.5,0-1-0.1-1.4-0.1c0.8-0.2,1.5-0.5,2.3-0.7
		C313.4,203.3,313.1,203.6,312.8,203.9z M307.9,208.7c-0.1,0-0.2-0.1-0.2-0.1c-0.8,0-1.6-0.1-2.4-0.1c1.4-0.5,2.8-1,4.3-1.5
		C309,207.6,308.4,208.1,307.9,208.7z M298.5,217.7c-1-0.1-2-0.2-3-0.3c1.8-0.7,3.6-1.3,5.4-2C300.1,216.2,299.3,217,298.5,217.7z
		 M290.6,225.2c-0.1,0.1-0.2,0.2-0.3,0.3c-0.7-0.1-1.5-0.2-2.2-0.2c0.8-0.2,1.6-0.4,2.4-0.6C290.4,224.9,290.5,225,290.6,225.2z
		 M256.8,249.5c1.3,0,2.6,0,3.9,0c-3,0.7-6,1.4-8.9,2.1c-0.7,0.2-0.5,1.2,0.2,1.3c1.7,0.1,3.5,0.2,5.2,0.3c-3.1,0.7-6.2,1.4-9.2,2.1
		c-0.8,0.2-0.5,1.4,0.3,1.2c0.3-0.1,0.5-0.1,0.8-0.2c-1.7,0.4-3.4,0.9-5.1,1.3c3.3-2.7,6.6-5.4,10-8.1c0.5,0,0.9,0,1.4,0
		C255.8,249.9,256.4,250,256.8,249.5C256.8,249.5,256.8,249.5,256.8,249.5z M232.3,266.9c0,0,0.1,0,0.1,0c0.2,0,0.3,0,0.5,0
		c0,0.1-0.1,0.2-0.1,0.3c-0.3,0-0.6,0.1-0.8,0.1c0-0.1,0-0.2,0.1-0.2C232.1,267.1,232.2,267,232.3,266.9z M219.2,277.2
		c0.8,0,1.7,0,2.5-0.1c0,0.1,0,0.2,0,0.3c-1.2,0.2-2.4,0.4-3.7,0.6C218.5,277.8,218.8,277.5,219.2,277.2z M243.5,265.5
		c-1.3,0-2.5,0-3.8,0.1c2.4-0.5,4.7-0.9,7.1-1.4c-1,0.8-1.9,1.6-2.9,2.4C244.3,266.2,244.1,265.5,243.5,265.5z M243.7,266.7
		c0.1,0,0.1,0,0.2-0.1c-3.6,3-7.2,6.1-10.8,9.1c-0.1-0.1-0.2-0.2-0.4-0.2c-0.9,0-1.7,0-2.6,0.1c0.9-1.4,1.8-2.9,2.5-4.4
		c2.2-0.4,4.4-0.8,6.6-1.3c0.8-0.1,0.5-1.2-0.2-1.3c-1.7-0.1-3.4-0.2-5.1-0.3C237.1,267.9,240.4,267.3,243.7,266.7z M234.3,267
		C234.3,267,234.3,267,234.3,267c0.2-0.1,0.4-0.1,0.6-0.1C234.7,267,234.5,267,234.3,267z M231.9,269.6c0,0,0,0.1,0,0.1
		c-0.2,0-0.5,0.1-0.7,0.1c0-0.1,0.1-0.2,0.1-0.2C231.5,269.5,231.7,269.6,231.9,269.6z M230.3,271.7c0.2,0,0.4-0.1,0.6-0.1
		c-0.7,1.3-1.5,2.6-2.3,3.9c0,0.1-0.1,0.1-0.1,0.2c-0.3,0-0.5,0-0.8,0C228.7,274.5,229.6,273.1,230.3,271.7z M226.1,275.7
		C226,275.7,226,275.7,226.1,275.7c-0.7,0.1-1.4,0.1-2.1,0.1c0.6-1,1.1-2.1,1.5-3.1c1.1-0.2,2.1-0.4,3.2-0.6
		C227.9,273.3,227.1,274.6,226.1,275.7z M223.2,277.1c0.2,0,0.3,0,0.5,0C223.5,277.1,223.3,277.2,223.2,277.1
		C223.1,277.2,223.2,277.1,223.2,277.1z M220.9,275.9c0.1-0.1,0.1-0.1,0.2-0.2c0,0.1,0.1,0.1,0.1,0.2
		C221.1,275.9,221,275.9,220.9,275.9z M223.4,273.9c-0.3,0.6-0.6,1.3-1,1.9c0,0-0.1,0-0.1,0c0.1-0.1,0.1-0.2,0.1-0.3
		c0-0.2,0-0.5-0.1-0.7C222.7,274.5,223,274.2,223.4,273.9z M228.1,270.3c0.4-0.3,0.7-0.6,1.1-0.9c0.2,0,0.5,0,0.7,0
		c-0.1,0.2-0.2,0.4-0.2,0.5C229.1,270.1,228.6,270.2,228.1,270.3z M236.3,263.8c1.7,0,3.4,0.1,5.2,0.1c-2.2,0.4-4.3,0.8-6.5,1.3
		c0.1-0.1,0.2-0.3,0.3-0.4c0,0,0-0.1,0-0.1C235.7,264.3,236,264,236.3,263.8z M247.5,262.7c-2.2,0-4.5-0.1-6.7-0.1
		c3.4-0.8,6.9-1.7,10.3-2.5c0.7-0.2,0.5-1.3-0.2-1.3c-2,0-3.9-0.1-5.9-0.1c3.4-0.9,6.8-1.8,10.3-2.7c0.6-0.2,0.6-0.9,0.1-1.2
		c1-0.2,2.1-0.5,3.1-0.7c-3.5,3-7,6-10.5,9C248,262.9,247.8,262.7,247.5,262.7z M241.1,259.9c1.6,0,3.2,0,4.8,0.1
		c-2.3,0.6-4.7,1.2-7,1.7c0.1-0.1,0.3-0.2,0.4-0.3c0.2,0,0.5-0.2,0.6-0.4C240.3,260.6,240.7,260.2,241.1,259.9z M256.6,251.8
		c2.1-0.5,4.2-1,6.3-1.5c-0.6,0.6-1.3,1.1-1.9,1.7C259.5,251.9,258,251.8,256.6,251.8z M258.4,247.2c1.8-0.4,3.6-0.6,5.5-0.7
		c1,0,2.1,0.1,3.1,0.1c-0.6,0.5-1.1,1-1.7,1.5c-2.5,0-5,0-7.5,0C258,247.9,258.2,247.6,258.4,247.2z M268.9,243.5
		c0.7-0.2,0.5-1.2-0.2-1.3c-1.4-0.1-2.8-0.2-4.2-0.2c3.4-0.7,6.7-1.4,10.1-2.1c-2,1.8-4.1,3.7-6.1,5.5c-1.6-0.1-3.1-0.2-4.6-0.1
		c-0.9,0-1.8-0.1-2.7-0.1C263.7,244.6,266.3,244.1,268.9,243.5z M264.6,240.7c0.6-0.5,1.2-1,1.8-1.6c1.3,0.1,2.7,0.2,4,0.3
		C268.5,239.9,266.5,240.3,264.6,240.7z M269.2,238c3.2-0.6,6.3-1.2,9.5-1.9c-1,1-2.1,1.9-3.1,2.9c-0.1-0.3-0.3-0.5-0.6-0.5
		C273,238.4,271.1,238.2,269.2,238z M277.6,234.4c1.2-0.2,2.5-0.4,3.7-0.7c-0.2,0.2-0.4,0.4-0.7,0.6
		C279.6,234.4,278.6,234.4,277.6,234.4z M272.3,234.1c1.8-1.5,3.6-3,5.3-4.6c0.1,0.2,0.3,0.5,0.6,0.5c1.8,0.1,3.6,0.2,5.4,0.2
		c-2.6,0.5-5.3,1.1-7.9,1.6c-0.7,0.2-0.5,1.2,0.2,1.3c0.4,0,0.9,0,1.3,0.1C275.6,233.5,274,233.8,272.3,234.1z M281.1,232.1
		c0.9-0.2,1.8-0.4,2.7-0.6c-0.2,0.2-0.5,0.4-0.7,0.6C282.4,232.1,281.8,232.1,281.1,232.1z M282.7,228.9c1.8-0.5,3.6-0.9,5.4-1.4
		c-0.5,0.5-1.1,1-1.6,1.5C285.2,229,283.9,228.9,282.7,228.9z M294.4,221.6c-0.4,0-0.9-0.1-1.3-0.1c0.6-0.2,1.3-0.3,1.9-0.5
		C294.8,221.2,294.6,221.4,294.4,221.6z M223.4,283.7c-3.1,0.1-6.3,0.2-9.5,0.3c4-1.2,7.9-2.4,11.9-3.7c0.7-0.2,0.6-1.3-0.2-1.3
		c-2,0-3.9,0-5.9,0c3.9-0.7,7.8-1.3,11.6-2c-1.4,1.2-2.8,2.3-4.2,3.4c-0.3,0.1-0.6,0.1-0.9,0.2c-0.5,0.1-0.6,0.6-0.4,0.9
		C225.1,282.3,224.2,283,223.4,283.7z M208.1,287.3c2.7-0.1,5.5-0.1,8.2-0.2c-2.9,0.6-5.8,1.2-8.7,1.8
		C207.8,288.4,208,287.9,208.1,287.3z M206.2,289.3c0,0-0.1,0-0.1,0c0.1-0.3,0.3-0.6,0.4-0.8C206.4,288.7,206.3,289,206.2,289.3z
		 M208.7,285.3c0.1,0.1,0.2,0.2,0.4,0.2c1.6-0.1,3.3-0.1,4.9-0.2c-1.9,0.2-3.8,0.5-5.7,0.7c0-0.1,0-0.3,0-0.4
		C208.5,285.5,208.6,285.4,208.7,285.3z M220.9,285.7C220.9,285.7,220.9,285.8,220.9,285.7c-0.1,0-0.1,0-0.2,0
		C220.8,285.8,220.8,285.7,220.9,285.7z M215.3,290.2c-2.3,0-4.7-0.1-7-0.1c3.2-0.7,6.4-1.3,9.6-2
		C217,288.8,216.2,289.5,215.3,290.2z M212.6,291.5c-2.4,0.4-4.7,0.9-7.1,1.3c0.4-0.4,0.7-0.9,1-1.4
		C208.6,291.4,210.6,291.5,212.6,291.5z M211.3,293.5c-0.9,0.1-1.8,0.2-2.7,0.3c-0.3,0-0.5,0.2-0.6,0.4c-1.1,0-2.3,0.1-3.4,0.1
		c2.4-0.4,4.9-0.9,7.3-1.3C211.7,293.1,211.5,293.3,211.3,293.5z M207.6,296.4c-0.8,0.6-1.5,1.2-2.3,1.8c-0.1-0.1-0.2-0.1-0.3-0.1
		c-1.9,0-3.7-0.1-5.6-0.1C202.1,297.5,204.8,297,207.6,296.4z M200,296.6c0.8-0.2,1.5-0.6,2.1-1c1.1,0,2.1,0,3.2-0.1
		C203.6,295.9,201.8,296.2,200,296.6z M196.4,297.3c-0.1,0-0.1-0.1-0.2-0.1c0.2,0,0.5,0,0.7,0C196.8,297.2,196.6,297.2,196.4,297.3z
		 M200.1,299.3c-0.4,0.1-0.8,0.2-1.2,0.3c0.1-0.1,0.2-0.2,0.2-0.3C199.5,299.3,199.8,299.3,200.1,299.3z M199.3,303
		c-1.3,0-2.7-0.1-4-0.1c0.1-0.3,0-0.7-0.4-0.8c0,0-0.1,0-0.1,0c2.8-0.7,5.7-1.5,8.5-2.2C201.9,300.9,200.6,301.9,199.3,303z
		 M179,309.2c0.2,0,0.5,0,0.7,0c-0.3,0.1-0.6,0.2-0.9,0.3C178.8,309.4,178.9,309.3,179,309.2z M188.7,308.2c1.8-0.4,3.6-0.9,5.4-1.6
		c0.4-0.2,0.6-0.6,0.4-1c0.6-0.1,1.3-0.3,1.9-0.4c-1.9,1.5-3.7,2.9-5.6,4.4c-0.1-0.3-0.4-0.7-0.8-0.6c-3.5,0.7-7,1.4-10.5,2.1
		c2.9-0.7,5.9-1.4,8.8-2C188.7,309,188.8,308.6,188.7,308.2z M189.8,310.4c-0.9,0.7-1.8,1.4-2.8,2.1c-2.3-0.1-4.7-0.1-7-0.2
		C183.3,311.7,186.5,311,189.8,310.4z M192,304.9c-0.3-0.1-0.6-0.1-0.8-0.2c0.3-0.2,0.6-0.4,0.9-0.6c1.1,0,2.1,0.1,3.2,0.1
		C194.2,304.4,193.1,304.6,192,304.9z M189.5,304.3c-0.4-0.1-0.8-0.2-1.2-0.3c0.5,0,1,0,1.6,0C189.8,304.1,189.6,304.2,189.5,304.3z
		 M188.1,302.4c-0.8,0-1.7,0.1-2.5,0.1c0.5-0.4,1.1-0.8,1.6-1.2c0.8,0.2,1.6,0.4,2.4,0.7C189.2,302.1,188.7,302.3,188.1,302.4z
		 M181.5,316.7c-2.6-0.2-5.1-0.3-7.7-0.5c3.6-0.6,7.1-1.2,10.7-1.8C183.5,315.2,182.5,316,181.5,316.7z M175.3,321.5
		c-2-0.6-4-1.1-6.1-1.7c3.2-0.4,6.5-0.7,9.7-1.1C177.7,319.7,176.5,320.6,175.3,321.5z M157.8,322.6c0.2-0.2,0.5-0.3,0.7-0.5
		c0.3,0,0.6,0,0.9,0.1c0.4,0.5,1.2,0.7,1.7,0.1c3.1,0.2,6.2,0.4,9.3,0.6c0,0-0.1,0-0.1,0.1C166.1,322.8,161.9,322.7,157.8,322.6z
		 M160.4,335.3c1.5-1.1,3-2.3,4.5-3.4c3.3,0.6,6.7,1.1,10,1.5C170.1,334,165.2,334.6,160.4,335.3z M84.7,372.2
		c-0.1,0.4-0.2,0.8-0.4,1.1c-0.6,0.1-1.2,0.2-1.8,0.3C83.3,373.1,84,372.7,84.7,372.2z M121.2,344.7c-0.1,0.3-0.2,0.6-0.3,0.9
		c-0.7,0.5-1.5,1-2.2,1.5c-0.4,0.3-0.8,0.5-1.2,0.8c0.6-2.4,1-4.9,1.1-7.4C119.4,341.9,120.2,343.3,121.2,344.7z M126,341.9
		c0,0,0,0.1,0.1,0.1c-0.1,0-0.1,0.1-0.2,0.1C126,342,126,341.9,126,341.9z M124.2,340.7c0.1-0.7,0.1-1.4,0-2.1
		C124.4,339.3,124.4,340.1,124.2,340.7z M135,338.5c0.4-0.3,0.9-0.6,1.3-0.9c-0.2,0.4-0.1,1,0.5,1c5.4-0.2,10.7-0.3,16.1-0.5
		c0.1,0,0.2,0,0.3-0.1c0,0,0,0,0,0c-3.1,2.3-6.2,4.6-9.4,6.9c-0.4,0-0.7,0-1.1,0.1c-0.8,0.1-1.1,0.8-1,1.4
		c-6.7,4.9-13.5,9.8-20.2,14.6c-0.2-0.1-0.3-0.1-0.5-0.2c-1-0.3-1.5,0.7-1.2,1.4c-0.9,0.7-1.8,1.3-2.7,2c-0.2,0.1-0.3,0.2-0.5,0.3
		c-3.9,2.8-7.9,5.6-11.9,8.4c-0.5,0-0.8,0.3-1,0.7c-30.5,21.1-62.1,40.6-95.8,56.1c0,0,0,0,0,0c-3.5,0.5-5.4-3.4-3.5-6
		c-0.1,0.8,0.2,1.6,1,2c0.8,0.3,1.4-0.8,0.7-1.1c-0.7-0.3-0.5-1.6,0.3-1.6c0.3,0,0.5-0.1,0.5-0.3c1.1,0.5,2.2,1,3.3,1.4
		c0.8,0.3,1.4-0.8,0.7-1.1c-1.1-0.5-2.2-1-3.3-1.5c1.4-0.9,2.9-1.8,4.3-2.7c0.1,0,0.1,0.1,0.2,0.1c1.9,0.6,3.8,1.2,5.7,1.8
		c0.8,0.2,1.1-1,0.3-1.2c-1.6-0.5-3.3-1-4.9-1.5c0.5-0.3,1.1-0.7,1.6-1c0.1,0,0.2,0,0.3,0c1.7-0.5,3.5,0.1,4.6,1.5
		c0.5,0.6,1.4-0.3,0.9-0.9c-0.9-1.1-2.2-1.8-3.6-2c0.7-0.4,1.4-0.9,2.1-1.3c1.6,0.5,3.3,1,4.9,1.5c0.8,0.2,1.1-1,0.3-1.2
		c-1.3-0.4-2.5-0.8-3.8-1.2c1.2-0.8,2.4-1.5,3.6-2.3c0.8,0.4,1.4,1.1,1.7,1.9c0.3,0.8,1.5,0.4,1.2-0.3c-0.4-1-1-1.8-1.8-2.3
		c0.6-0.3,1.1-0.7,1.7-1c2.5-0.5,5.1-1,7.6-1.4c0.3,0.1,0.5,0.2,0.8,0.4c0.6,0.3,1.2-0.4,0.9-0.9c0.2-0.4-0.2-1.1-0.8-0.9
		c-0.2,0-0.5,0.1-0.7,0.1c-0.4-0.2-0.7-0.4-1.1-0.5c-0.6-0.3-1.2,0.5-0.9,0.9c-1,0.2-1.9,0.4-2.9,0.5c0.8-0.5,1.7-1.1,2.5-1.6
		c0.1,0,0.2,0,0.3,0c2.1-0.2,4.2-0.3,6.3-0.5c0.8-0.1,0.8-1.4,0-1.3c-1.5,0.1-2.9,0.2-4.4,0.3c0.7-0.4,1.3-0.8,2-1.3
		c2.7,0,5.4,0,8.2,0c0.8,0,0.8-1.3,0-1.3c-2,0-4.1,0-6.1,0c0.9-0.6,1.9-1.2,2.8-1.8c0.1,0.2,0.3,0.3,0.6,0.2
		c2.7-0.4,5.4-0.8,8.1-1.1c0.7-0.1,0.6-0.9,0.1-1.2c2.2-0.3,4.4-0.5,6.6-0.8c0.8-0.1,0.8-1.4,0-1.3c-3.4,0.4-6.9,0.8-10.3,1.2
		c-0.7,0.1-0.8,1.1-0.3,1.3c-0.9,0.1-1.8,0.3-2.7,0.4c2-1.3,3.9-2.5,5.9-3.8c0.1,0.3,0.4,0.5,0.7,0.4c2.5-0.4,5-0.8,7.5-1.2
		c0.8-0.1,0.5-1.4-0.3-1.2c-2.1,0.3-4.2,0.6-6.2,1c1.4-0.9,2.7-1.8,4.1-2.6c-0.1,0.4,0.2,0.9,0.8,0.8c2.7-0.6,5.4-1.2,8.1-1.7
		c0.8-0.2,0.5-1.4-0.3-1.2c-2.6,0.6-5.1,1.1-7.7,1.7c1.7-1.1,3.4-2.2,5.1-3.3c2.1-0.3,4.1-0.5,6.2-0.8c0.2,0,0.4-0.1,0.5-0.3
		c2.4-0.3,4.7-0.6,7.1-0.9c0.8-0.1,0.8-1.4,0-1.3c-3.6,0.5-7.2,0.9-10.8,1.4c1.1-0.7,2.2-1.4,3.3-2.1c0,0.3,0.2,0.6,0.6,0.5
		c3.8-0.4,7.7-0.8,11.5-1.2c0.8-0.1,0.8-1.4,0-1.3c-3.6,0.4-7.2,0.7-10.8,1.1c4.4-2.8,8.7-5.7,13.1-8.5c0,0.4,0.3,0.8,0.8,0.7
		c0.5-0.1,1-0.1,1.5-0.2c-0.1,0.2-0.1,0.4-0.2,0.6c-0.3,0.8,1,1.1,1.2,0.3c0.1-0.4,0.2-0.8,0.4-1.1c1.7-0.3,3.4-0.5,5.2-0.8
		c0.8-0.1,0.5-1.4-0.3-1.2c-1.5,0.2-2.9,0.4-4.4,0.6c0.1-0.4,0.3-0.8,0.4-1.2c2.9,0,5.8,0,8.7,0c0.8,0,0.8-1.3,0-1.3
		c-2.6,0-5.2,0-7.8,0c1.2-0.8,2.5-1.6,3.7-2.5c2.7-0.3,5.4-0.6,8.1-0.9c0.8-0.1,0.8-1.4,0-1.3c-1.9,0.2-3.9,0.4-5.8,0.6
		c1.1-0.7,2.2-1.5,3.3-2.2c2.2,0,4.3,0,6.5,0c0.8,0,0.8-1.3,0-1.3c-0.4,0-0.7,0-1.1,0c1.9-0.3,3.9-0.7,5.8-1
		c0.8-0.1,0.5-1.4-0.3-1.2c-2.5,0.4-5,0.9-7.5,1.3c1.2-0.8,2.5-1.7,3.7-2.5c3-0.2,6.1-0.3,9.1-0.5c0.8,0,0.8-1.3,0-1.3
		c-2.3,0.1-4.6,0.2-7,0.4c0.8-0.5,1.6-1,2.3-1.6c-0.1,0.4,0.1,0.8,0.6,0.8c3.5,0,6.9,0,10.4,0c0.8,0,0.8-1.3,0-1.3
		c-3.4,0-6.8,0-10.2,0c1.5-1,3.1-2.1,4.7-3.1c0,0.1-0.1,0.2-0.1,0.3c-0.2,0.5,0,1,0.3,1.3c-0.8,0.2-0.4,1.4,0.4,1.2
		c2.5-0.4,5-0.8,7.5-1.2c0.8-0.1,0.5-1.4-0.3-1.2c-2,0.3-4,0.6-5.9,1c0.5-1.1,0.9-2.3,1.3-3.4c1.1-0.8,2.2-1.5,3.4-2.3
		c0.4,0.6,1.4,0.8,1.8,0c0.3-0.6,0.6-1.2,0.9-1.9c0.1-0.1,0.1-0.1,0.2-0.2c0.1,0.1,0.1,0.2,0.2,0.2c0.5,0.6,1.5-0.3,0.9-0.9
		c0,0,0,0,0-0.1c1.6-1.1,3.2-2.2,4.8-3.3c0,0.3,0.2,0.6,0.6,0.5c2.5-0.3,5-0.7,7.5-1c0.8-0.1,0.8-1.4,0-1.3
		c-2.3,0.3-4.6,0.6-6.9,0.9c1.1-0.8,2.2-1.5,3.3-2.3c2.2,0.1,4.3,0.3,6.5,0.4c0.8,0,0.8-1.2,0-1.3
		C138.1,338.7,136.5,338.6,135,338.5z M147.3,284.6c1.2,8.4,1.3,16.7,0.2,25c-0.1-8.3-0.2-16.6-0.2-24.8
		C147.3,284.7,147.3,284.6,147.3,284.6z M151.2,305c-0.1,0.1-0.1,0.2-0.2,0.3c-0.4,0.5-0.2,1,0.2,1.3c0,1.2,0,2.5,0,3.7
		c0,0-0.1,0-0.1,0c-0.6,0-1.1-0.1-1.7-0.1c-0.3,0-0.6,0.1-0.7,0.3c1-7.1,1.1-14.3,0.4-21.5c0.9,3.9,1.5,7.9,1.6,12
		c0,0.3,0.2,0.5,0.5,0.6C151.2,302.7,151.2,303.9,151.2,305z M167.3,325.3c-4.6,0.1-9.2,0.2-13.8,0.3c0.8-0.6,1.7-1.2,2.5-1.8
		c5.2,0.1,10.5,0.2,15.7,0.4c-5.1,3.9-10.3,7.7-15.4,11.6c-0.7,0.1-1.5,0.2-2.2,0.3c-0.5,0.1-0.8,0.4-0.9,0.7c0,0-0.1,0-0.1,0
		c-5.4,0.2-10.7,0.3-16.1,0.5c-0.1,0-0.1,0-0.1,0c0.9-0.6,1.8-1.2,2.7-1.9c5.1-0.4,10.1-0.8,15.2-1.2c0.8-0.1,0.8-1.4,0-1.3
		c-4.4,0.3-8.7,0.7-13.1,1c1.4-1,2.9-2,4.3-3c4.3,0,8.6,0,12.8,0c0.8,0,0.8-1.3,0-1.3c-3.7,0-7.3,0-11,0c0.5-0.3,1-0.7,1.4-1
		c3.8,0,7.5,0,11.3,0c0.8,0,0.8-1.3,0-1.3c-3.1,0-6.3,0-9.4,0c0.2-0.1,0.4-0.3,0.5-0.4c5.3-0.1,10.5-0.2,15.8-0.4
		C168.1,326.6,168.1,325.3,167.3,325.3z M169.4,314.3c-0.1,0.3-0.2,0.6-0.3,0.9c-0.1,0.2-0.1,0.3-0.1,0.5c-0.3,0-0.6,0.1-0.9,0.1
		c-0.8,0.1-0.5,1.2,0.2,1.3c2.7,0.2,5.5,0.4,8.2,0.5c-3.2,0.4-6.5,0.7-9.7,1.1c0,0-0.1-0.1-0.1-0.1c-0.4-0.4-0.9-0.1-1.1,0.3
		c-0.6,0.2-0.7,1,0,1.2c0.4,0.1,0.8,0.2,1.2,0.3c0.4,0.3,0.8,0.6,1.2,0.9c-1.8-0.1-3.5-0.2-5.3-0.3c0.1-0.7,0.2-1.5,0.3-2.2
		C165.2,317.4,167.3,315.9,169.4,314.3z M175.9,309.6c-0.1,0.2-0.1,0.5,0,0.7c-0.3,0.1-0.6,0.2-0.9,0.3c-0.8,0.2-0.5,1.5,0.3,1.2
		c0.2-0.1,0.4-0.1,0.6-0.2c0.1,0,0.1,0.1,0.2,0.1c-0.7,0.1-1.4,0.3-2,0.4c-0.7,0.1-0.5,1.3,0.2,1.3c2.3,0.1,4.7,0.1,7,0.2
		c-3.3,0.6-6.6,1.1-9.9,1.7c0.4-1,0.7-2.1,1-3.1C173.5,311.4,174.7,310.5,175.9,309.6z M183.5,304.1c1.5,0.4,3,0.7,4.5,1.1
		c-0.6,0.3-1.1,0.7-1.7,1c-2.1,0.5-4.2,0.9-6.3,1.4c0.2-0.4,0.4-0.9,0.6-1.3C181.5,305.5,182.5,304.8,183.5,304.1z M189,300.1
		c1.4-1,2.7-2,4.1-3c0.4,0.2,0.8,0.4,1.3,0.7c-0.4,0.1-0.9,0.2-1.3,0.3c-0.7,0.1-0.5,1.3,0.2,1.3c1,0,2.1,0,3.1,0.1
		C193.9,300,191.5,300.3,189,300.1z M195.9,294.9c-0.1,0.4,0.2,0.8,0.6,0.8c0.6,0,1.1,0,1.7,0c-1.1,0.2-2.3,0.2-3.5,0.1
		C195.1,295.5,195.5,295.2,195.9,294.9z M200.5,291.5c0.4-0.3,0.9-0.7,1.3-1c-0.1,0.4,0.1,0.9,0.6,0.9c0.8,0,1.7,0,2.5,0
		c-0.5,0.7-1,1.3-1.6,1.8c-2.3,0.4-4.5,0.8-6.8,1.2c0.6-0.4,1.2-0.9,1.7-1.3c0.4,0.3,0.9,0.3,1.3-0.2
		C199.9,292.5,200.3,292,200.5,291.5z M205.3,287.8c-0.3,0.6-0.6,1.1-0.9,1.7c0,0,0,0.1,0,0.1c-0.7,0.1-1.3,0.3-2,0.4
		C203.4,289.3,204.4,288.6,205.3,287.8z M215.1,280.4c2.1,0,4.1,0,6.2,0c-3.4,1.1-6.9,2.1-10.3,3.2
		C212.3,282.5,213.7,281.4,215.1,280.4z M216.3,276C216.3,276,216.3,276,216.3,276C216.3,276,216.3,276,216.3,276
		C216.3,276,216.3,276,216.3,276z M220.9,272.4c-0.9,0.4-1.8,0.8-2.7,1.2c1.1-5.8,1.6-11.6,1.5-17.5
		C220,261.5,220.5,266.9,220.9,272.4z M219.2,274.5c-0.5,0.4-1,0.8-1.5,1.2c0-0.2,0.1-0.3,0.1-0.5
		C218.2,275,218.7,274.7,219.2,274.5z M239.1,258.7c-0.9,0.8-1.9,1.5-2.8,2.3c4.6-16.8,7-34,7.3-51.2
		C244.9,226.2,243.4,242.7,239.1,258.7z M261.6,243.1c0.8,0,1.6,0.1,2.4,0.1c-1.1,0.3-2.3,0.5-3.4,0.8
		C260.9,243.7,261.3,243.4,261.6,243.1z M269.2,236.7c0.4-0.3,0.8-0.7,1.2-1c1.8-0.3,3.7-0.7,5.5-1c-0.1,0.2-0.1,0.5,0,0.7
		C273.6,235.9,271.4,236.3,269.2,236.7z M293.1,215.9c0.1-0.1,0.3-0.2,0.4-0.3c0.1-0.1,0.1-0.1,0.2-0.2c0,0.2,0,0.5,0,0.7
		c0,0.2,0.1,0.4,0.3,0.5c-0.5,0.2-0.9,0.4-1.4,0.5c-0.7,0.3-0.6,1.2,0.2,1.3c1.5,0.2,3,0.3,4.5,0.5c-0.1,0.1-0.2,0.2-0.3,0.3
		c-2.7,0.7-5.4,1.4-8.1,2.1c-0.7,0.2-0.5,1.2,0.2,1.3c1.2,0.1,2.4,0.2,3.6,0.2c-2.9,0.7-5.8,1.4-8.7,2c-0.8,0.2-0.5,1.2,0.2,1.3
		c1,0.1,1.9,0.2,2.9,0.3c-2.8,0.7-5.5,1.4-8.3,2.1C283.6,224.3,288.4,220.1,293.1,215.9z M286.7,216.3c0.6-0.6,1.1-1.2,1.7-1.9
		c-0.3,1.2-0.7,2.3-1.1,3.5c-0.4,0.4-0.9,0.8-1.3,1.2c0.1-0.1,0.1-0.2,0.2-0.4C286.4,218,286.6,217.1,286.7,216.3z M291.1,210.9
		c0.1,1.1,0.2,2.3,0.3,3.4c-0.7,0.7-1.5,1.3-2.2,2c0.3-1,0.6-2,0.8-3c0.3,0,0.7-0.2,0.7-0.6c0-0.4,0-0.8,0-1.3
		C290.9,211.2,291,211.1,291.1,210.9z M292.1,207c-0.1,0-0.1,0-0.2,0c0.4-1.4,0.8-2.8,1.2-4.2c0,0.8,0.1,1.5,0.1,2.3
		C292.9,205.8,292.5,206.4,292.1,207z M293.5,212.4c0,0-0.1,0.1-0.1,0.1c-0.1-1.5-0.2-3-0.4-4.5c0,0,0,0,0,0
		c0.1-0.2,0.2-0.3,0.3-0.5C293.4,209.2,293.5,210.8,293.5,212.4z M314.4,196.2c0.1,0.9,0.1,1.7,0.2,2.6c0,0.3,0.1,0.5,0.3,0.6
		c-0.7,0.3-1.5,0.6-2.2,0.9c-0.6,0.3-0.6,1.3,0.2,1.3c0.4,0,0.9,0,1.3,0c-2.1,0.6-4.2,1.3-6.3,1.9c-0.7,0.2-0.5,1.2,0.2,1.3
		c1.2,0.1,2.4,0.2,3.5,0.3c-3.3,1.1-6.6,2.3-10,3.4c-0.7,0.2-0.6,1.2,0.2,1.3c1.1,0,2.2,0.1,3.3,0.1c-2.8,1.3-5.5,2.7-8.3,4
		c-0.8,0.4-0.1,1.5,0.7,1.1c2.7-1.3,5.4-2.6,8.1-3.9c-0.7,0.7-1.5,1.4-2.2,2.2c-2.8,1-5.5,2-8.3,3.1c0-0.1,0-0.1,0-0.2
		c0-0.6,0-1.2-0.1-1.9c3.5-3.2,7.1-6.4,10.6-9.7c0.3,0.2,0.8,0.1,1-0.3c0.1-0.3,0.1-0.5,0.2-0.8C309.2,201,311.8,198.6,314.4,196.2z
		 M330.6,180.4C330.6,180.4,330.6,180.4,330.6,180.4c-0.1,0.7-0.1,1.4-0.2,2.1c-0.9,0.3-1.7,0.7-2.6,1c-0.8,0.3-0.4,1.5,0.3,1.2
		c0.7-0.3,1.4-0.5,2.1-0.8c0,0.1,0,0.3,0,0.4c0,0.2,0.1,0.4,0.2,0.5c-1.9,0.7-3.7,1.4-5.6,2.1c-0.8,0.3-0.4,1.5,0.3,1.2
		c1.6-0.6,3.1-1.2,4.7-1.8c-0.8,0.8-1.5,1.6-2.3,2.4c-2.8,1-5.6,1.9-8.4,2.9c-0.8,0.3-0.4,1.5,0.3,1.2c2-0.7,4.1-1.4,6.1-2.1
		c-0.7,0.8-1.5,1.5-2.2,2.3c-2.3,0.9-4.6,1.9-6.9,2.8c0-0.6-0.1-1.1-0.1-1.7c2.4-2.3,4.8-4.7,7.2-7c0.3,0.1,0.7,0,0.8-0.4
		c0-0.1,0.1-0.3,0.1-0.4C326.6,184.4,328.6,182.4,330.6,180.4z M343.6,167.1c0.4,0.6,1.6,0.6,2-0.3c0.1-0.3,0.2-0.6,0.3-0.9
		c0.1,0,0.1,0,0.2-0.1c1.7-0.9,3.4-1.7,5.1-2.6c-1,1.2-2.1,2.4-3.1,3.6c-2.7,1.3-5.4,2.6-8.1,4C341.2,169.5,342.4,168.3,343.6,167.1
		z M345.9,153.2c-0.9,3.4-1.8,6.8-2.7,10.2c-0.1,0.3,0.1,0.6,0.3,0.7c-0.6,0.6-1.2,1.3-1.8,1.9c0.2-1.2,0.5-2.4,0.7-3.7
		c1.1-4.1,2.3-8.1,3.4-12.2C345.8,151.1,345.9,152.2,345.9,153.2z M358.8,150.8c0,0.2-0.1,0.4-0.1,0.6c-0.3,0.2-0.5,0.3-0.8,0.5
		c0-0.1,0-0.2,0-0.2c0.1-0.1,0.1-0.1,0.2-0.2c0.2,0,0.3-0.2,0.5-0.3C358.7,151,358.8,150.9,358.8,150.8z M364.8,134.2
		c-0.1,2.5-0.3,4.9-0.7,7.3c-0.8,0.9-1.6,1.8-2.4,2.7c0.8-3.5,1.6-7,2.4-10.4C364.3,134,364.5,134.2,364.8,134.2z M362.7,147.4
		c-0.2,0.6-0.4,1.2-0.6,1.8c0,0.1-0.1,0.2-0.1,0.3c-0.6,0.4-1.2,0.7-1.8,1.1c0.1-0.6,0.3-1.2,0.4-1.9c0.1-0.2,0.3-0.3,0.4-0.5
		c0.2,0.3,0.8,0.4,1.1,0C362.3,147.9,362.5,147.7,362.7,147.4z M377.8,128.9c-0.2,0.6-0.3,1.2-0.5,1.8c0,0.1,0,0.3,0,0.4
		c-4,5.3-8.1,10.5-12.2,15.7c0.4-1.4,0.7-2.8,1-4.2c2.8-3.2,5.6-6.4,8.3-9.6C375.5,131.6,376.6,130.3,377.8,128.9z M396.6,58
		c0,0.1-0.1,0.2-0.1,0.3c0,10.6,0,21.2,0.1,31.8c-0.7,1.6-1.3,3.2-2,4.7c-0.5-2.2-1.1-4.4-1.6-6.5c-0.3-1.3-2.4-0.8-2.1,0.6
		c0.8,3.1,1.5,6.2,2.3,9.3c-2.3,5.5-4.6,11.1-7,16.6c-0.1,0.1-0.1,0.3,0,0.4c-1.8,2.2-3.5,4.4-5.3,6.6c0.2-0.9,0.5-1.8,0.7-2.8
		c4.5-6,7.8-12.8,9.9-20.1c0.2-0.8-1-1.1-1.2-0.3c-1.7,6.1-4.4,11.8-7.8,17c2.6-10.4,5.2-20.9,7.8-31.3c0.3-0.1,0.6-0.4,0.5-0.8
		c-0.1-0.3-0.1-0.5-0.1-0.8c0,0,0-0.1,0-0.1c-2.8-14.5-3.3-29.3-1.6-43.8c0.4,1.7,0.8,3.4,1.3,5.1c0.1,0.5,0.1,0.9,0.2,1.4
		c0,0.3,0.2,0.4,0.4,0.4C392.3,49.9,394.2,54,396.6,58z M414,7.8c-0.5,5-0.9,10-1.4,15c-0.6,1.6-1.1,3.2-1.7,4.8
		C412,21,413,14.4,414,7.8z"/>
	<path fill="#010101" d="M436.2,26.9c0-4.3,0-8.7,0-13c0-1.1-1.4-1.3-2-0.6c0.3-4.3-0.9-8-5.9-8.2c-0.8,0-0.8,1.3,0,1.3
		c8.4,0.4,3.2,13.2,2.2,17.4c-1.1,4.2-2.2,8.4-3.2,12.5c-0.7,1.2-1.5,2.5-2.2,3.7c2.1-7.1,4.2-14.2,6.3-21.2c0.2-0.8-1-1.1-1.2-0.3
		c-2.6,8.7-5.2,17.5-7.8,26.2c-1.6,2.7-3.2,5.5-4.8,8.2c-0.4,0.7,0.7,1.4,1.1,0.7c1.4-2.4,2.8-4.8,4.3-7.2c0.2,0,0.4-0.2,0.5-0.4
		c0.1-0.2,0.1-0.5,0.2-0.7c0.8-1.4,1.7-2.9,2.5-4.3c-1.2,4.7-2.5,9.5-3.7,14.2c-1.5,3-2.9,5.9-4.4,8.9c-0.4,0.7,0.8,1.4,1.1,0.7
		c0.5-1.1,1.1-2.2,1.6-3.3c-0.2,0.7-0.4,1.4-0.6,2.1c-0.2,0.8,1,1.1,1.3,0.3c0.7-2.8,1.4-5.5,2.1-8.3c3.5-7.1,6.9-14.1,10.4-21.2
		c0,1.3,0,2.5,0,3.8c0,1.4,2.2,1.4,2.2,0c0-2.7,0-5.5,0-8.2c0.8-1.7,1.6-3.4,2.5-5c0.4-0.7-0.8-1.4-1.1-0.7
		C437.1,25,436.6,26,436.2,26.9z M434,15.1c0,3.2,0,6.5,0,9.7c-1.5,2.5-2.9,4.9-4.4,7.4c0.6-2.2,1.1-4.4,1.7-6.5
		C431.9,23.3,433.4,19.1,434,15.1z M434,31.3c-2.9,6-5.8,11.9-8.8,17.9c1.1-4.2,2.1-8.3,3.2-12.5c1.8-3.1,3.7-6.3,5.5-9.4
		C434,28.7,434,30,434,31.3z"/>
	<path fill="#010101" d="M378,118.3c-0.3,0.8-1.5,0.4-1.2-0.3c4-11.1,5.7-22.6,5-34.4c0-0.8,1.2-0.8,1.3,0
		C383.8,95.5,382.1,107.1,378,118.3z"/>
	<path fill="#010101" d="M377.4,4.2c-0.3,0.6-0.5,1.3-0.8,1.9c-0.3-0.1-0.5-0.1-0.8,0.2c-4,3.1-7,6.7-9.3,10.6
		c-0.1-0.5-0.9-0.7-1.2-0.2c-8.9,13.1-16.2,27.1-21.8,41.7c0.3-3.6,0.7-7.1,1.3-10.7c4.9-9.3,10.6-18.2,17.1-26.6
		c0.5-0.7-0.4-1.6-0.9-0.9c-5.8,7.5-10.9,15.3-15.5,23.5c0.5-2.6,1-5.2,1.7-7.8c0.1-0.5-0.3-0.8-0.6-0.8c5.9-10,14-18.8,23.7-25.6
		c1.1-0.8,0.1-2.7-1.1-1.9c-21,14.5-34.4,38.4-36.2,63.6c-1.4,3.8-2.6,7.5-3.7,11.4c2.4-20.2,8.6-39.9,18.4-57.9
		c0.7-1.2-1.2-2.3-1.9-1.1c-11.9,22-18.7,46.4-19.7,71.4c-0.1,1.4,2.1,1.4,2.2,0c0.2-4,0.5-7.9,0.9-11.9c0.1,0.5,1.1,0.7,1.2,0
		c0.7-2.5,1.5-5,2.3-7.4c-0.1,3.1,0.1,6.2,0.4,9.4c0,0.1,0,0.1,0,0.2c-0.2,0.1-0.4,0.3-0.4,0.6c-1.3,16.3-2.6,32.5-3.9,48.8
		c-0.1,0.8,1.2,0.8,1.3,0c0.7-9.1,1.5-18.1,2.2-27.2c0.2,10.3,1.1,20.6,2.8,30.9c0.1,0.8,1.4,0.5,1.2-0.3
		c-2.3-13.7-3.2-27.5-2.6-41.3c0,2.1,0,4.3,0,6.4c0,0.8,1.3,0.8,1.3,0c-0.1-5.6,0-11.2,0.3-16.8c0-0.1,0.1-0.3,0-0.5
		c0,0,0-0.1,0-0.1c0.5-8.2,1.4-16.3,2.9-24.3c1.5-3.5,3.1-6.9,4.8-10.3c-0.5,3.8-0.8,7.5-1,11.3c-1.9,5.4-3.7,10.9-5.1,16.4
		c-0.2,0.8,1,1.1,1.2,0.3c0.2-0.9,0.5-1.7,0.7-2.6c-3.8,18.8-4.5,38.1-2,57.2c-0.1,0.1-0.1,0.2-0.1,0.3c-0.1,2.3-0.3,4.7-0.5,7
		c-0.5,3-1,6-1.5,9c0,0.2,0,0.4,0.2,0.6c-1.6,9.2-4.1,18.2-7.6,26.9c-0.3,0.8,0.9,1.1,1.2,0.3c4.7-11.8,7.7-24.1,8.9-36.7
		c0.2-1.4,0.5-2.9,0.7-4.3c0.2-0.1,0.3-0.4,0.3-0.6c0-0.2,0-0.4-0.1-0.5c1.2-7.2,2.3-14.3,3.5-21.5c0.1-0.8-1.1-1.2-1.2-0.3
		c-0.9,5.8-1.9,11.6-2.8,17.4c-2.5-20.8-1.1-41.9,4-62.2c0,5.8,0.4,11.5,1.2,17.3c0.1,0.8,1.4,0.8,1.3,0c-1-7.9-1.4-15.8-1-23.7
		c5.6-15.5,13-30.2,22.1-43.9c-3.4,6.6-5.1,14-6.1,21.5c-5.6,21.3-8.9,43.1-9.7,65.1c0,0.8,1.3,0.8,1.3,0
		c0.7-18.8,3.2-37.4,7.4-55.6c-0.1,1.1-0.2,2.3-0.3,3.4c-0.1,1.4,2.1,1.4,2.2,0c0.5-6.8,1.1-13.9,2.7-20.8c0.5-1.6,0.9-3.1,1.4-4.7
		c0.1-0.2,0-0.3,0-0.5c2.2-6.8,5.6-13.1,11.2-18c-2.6,6.3-5.2,12.6-7.7,18.9c-0.3,0.8,0.9,1.1,1.2,0.3c3.3-8,6.6-16.1,9.9-24.1
		C378.9,3.7,377.7,3.4,377.4,4.2z M335.3,68.3c0.2-0.5,0.4-1,0.5-1.4c-0.1,0.4-0.1,0.8-0.2,1.2C335.5,68.1,335.4,68.2,335.3,68.3z
		 M336,63.1c0.6-3.1,1.3-6.2,2.2-9.2c-0.5,2.4-1,4.9-1.4,7.4C336.5,61.8,336.3,62.4,336,63.1z M339.1,56.1c0.8-3.8,1.6-7.6,2.6-11.3
		c0-0.1,0-0.2,0-0.3c1.1-2.6,2.4-5.2,3.8-7.7c-0.8,3.5-1.6,7.1-2.1,10.6C341.9,50.2,340.5,53.1,339.1,56.1z"/>
	<path fill="#010101" d="M275.4,302.7c0.8,0,0.8,1.3,0,1.3c-7.3-0.2-14.6-0.3-21.8-0.5c-0.1,0.3-0.3,0.5-0.6,0.5
		c-15-0.1-29.9-0.2-44.9-0.3c-0.8,0-0.8-1.3,0-1.3c7.3,0.1,14.6,0.1,21.8,0.2c-0.1-0.4,0.1-0.8,0.6-0.8c9.5,0.2,19,0.4,28.4,0.6
		c-13.8-2.4-27.7-2.5-41.6-0.2c-0.8,0.1-1.2-1.1-0.3-1.2c15-2.5,30.3-2.3,45.2,0.7c0.4,0.1,0.5,0.5,0.4,0.8
		C266.9,302.5,271.1,302.6,275.4,302.7z"/>
	<path fill="#010101" d="M194.8,290.7c-0.3,0.8-1.5,0.5-1.2-0.3c1.8-5.7,1.7-11.4-0.4-16.9c-0.3-0.8,1-1.1,1.2-0.3
		C196.5,278.8,196.7,284.8,194.8,290.7z"/>
	<path fill="#010101" d="M134.5,345.3c-2.7,0.2-5.4,0.4-8.1,0.5c-0.8,0.1-0.8-1.2,0-1.3c2.7-0.2,5.4-0.4,8.1-0.5
		C135.3,343.9,135.3,345.2,134.5,345.3z"/>
	<path fill="#010101" d="M131.6,348.8c-2.9,0.2-5.8,0.4-8.6,0.6c-0.8,0.1-0.8-1.2,0-1.3c2.9-0.2,5.8-0.4,8.6-0.6
		C132.5,347.4,132.5,348.7,131.6,348.8z"/>
	<path fill="#010101" d="M127,351.5c-3.3,0.4-6.5,0.8-9.8,1.2c-0.8,0.1-0.8-1.2,0-1.3c3.3-0.4,6.5-0.8,9.8-1.2
		C127.9,350.1,127.8,351.4,127,351.5z"/>
	<path fill="#010101" d="M84.7,377.7c-2.1,0.4-4.2,0.8-6.3,1.2c-0.8,0.2-1.2-1.1-0.3-1.2c2.1-0.4,4.2-0.8,6.3-1.2
		C85.2,376.3,85.5,377.5,84.7,377.7z"/>
	<path fill="#010101" d="M83,380.4c-2.7,0.4-5.4,0.8-8,1.2c-0.8,0.1-1.2-1.1-0.3-1.2c2.7-0.4,5.4-0.8,8-1.2
		C83.4,379.1,83.8,380.3,83,380.4z"/>
	<path fill="#010101" d="M179.9,374.9c-0.7-0.5,0-1.6,0.7-1.1c5.2,3.8,10.5,7.5,15.7,11.3c0.7,0.5,0,1.6-0.7,1.1
		C190.3,382.4,185.1,378.6,179.9,374.9z"/>
	<path fill="#010101" d="M119.7,393.6c-3.9-4.2-7.8-8.3-11.7-12.5c-0.6-0.6,0.3-1.5,0.9-0.9c3.9,4.2,7.8,8.3,11.7,12.5
		C121.2,393.3,120.3,394.3,119.7,393.6z"/>
	<path fill="#010101" d="M103.1,315.2c2.6,13.2,3,26.6,1.4,40c-0.1,0.8-1.4,0.8-1.3,0c1.6-13.2,1.2-26.5-1.3-39.6
		C101.7,314.8,102.9,314.4,103.1,315.2z"/>
	<path fill="#010101" d="M130.9,337.4c-0.3,0.8-1.5,0.4-1.2-0.3c4.8-12.6,6.2-26,4-39.3c-0.1-0.8,1.1-1.2,1.2-0.3
		C137.1,310.9,135.8,324.5,130.9,337.4z"/>
	<path fill="#010101" d="M128.2,264c3.2,5.5,5.7,11.2,7.7,17.1c-0.7-3.7-1.7-7.4-3.1-11.1c-0.5-1.3,1.6-1.9,2.1-0.6
		c3.1,8.7,4.6,17.7,4.5,26.8c0.5,3.6,0.8,7.3,0.8,11.1c0,0.8-1.3,0.8-1.3,0c0-2.4-0.1-4.7-0.4-7.1c-0.6,0.2-1.4-0.1-1.4-1
		c0.2-2.9,0.1-5.8,0-8.7c-1.9-9.1-5.2-17.8-10-25.9C126.7,263.9,127.8,263.3,128.2,264z"/>
	<path fill="#010101" d="M204.5,280.8c-0.1,0.8-1.4,0.8-1.3,0c1.8-14.4,1.9-28.8,0.5-43.2c-0.1-0.8,1.2-0.8,1.3,0
		C206.5,252,206.3,266.4,204.5,280.8z"/>
	<path fill="#010101" d="M359.8,54.1c0.1-0.8,1.4-0.5,1.2,0.3c-1.9,11.9-3.8,23.8-5.6,35.7c-0.1,0.8-1.4,0.5-1.2-0.3
		C356.1,77.9,358,66,359.8,54.1z"/>
	<path fill="#010101" d="M412.1,53.3c-3.4,12.8-6.8,25.6-10.2,38.4c-0.2,0.8-1.5,0.5-1.2-0.3c3.4-12.8,6.8-25.6,10.2-38.4
		C411,52.1,412.3,52.5,412.1,53.3z"/>
	<path fill="#010101" d="M86.1,410.6c-0.9-6.1-3.3-11.6-7.1-16.3c-0.5-0.6,0.4-1.6,0.9-0.9c4,4.9,6.6,10.6,7.5,16.9
		C87.4,411.1,86.2,411.4,86.1,410.6z"/>
	<path fill="#010101" d="M112,393.9c-0.7-0.4-0.1-1.5,0.7-1.1c3.3,1.9,6.5,3.8,9.8,5.7c0.7,0.4,0.1,1.5-0.7,1.1
		C118.6,397.7,115.3,395.8,112,393.9z"/>
	<path fill="#010101" d="M76.7,342.9c1.4,5.8,2.8,11.6,4.2,17.4c0.2,0.8-1.1,1.2-1.2,0.3c-1.4-5.8-2.8-11.6-4.2-17.4
		C75.3,342.4,76.5,342.1,76.7,342.9z"/>
	<path fill="#010101" d="M130.4,394c-0.7-0.4-0.1-1.5,0.7-1.1c1.9,1.1,3.9,2.3,5.8,3.4c0.7,0.4,0.1,1.5-0.7,1.1
		C134.2,396.3,132.3,395.2,130.4,394z"/>
	<path fill="#010101" d="M134.7,402.6c-0.5-0.7,0.7-1.3,1.1-0.7c0.8,1.1,1.5,2.3,2.3,3.4c0.5,0.7-0.7,1.3-1.1,0.7
		C136.2,404.9,135.4,403.7,134.7,402.6z"/>
	<path fill="#010101" d="M141.7,417.7c-0.8,0.1-0.8-1.2,0-1.3c7.4-0.5,14.4,1.5,20.2,6c0.7,0.5,0,1.6-0.7,1.1
		C155.5,419.1,148.9,417.2,141.7,417.7z"/>
	<path fill="#010101" d="M119.4,409.4c-0.8-1.5-1.5-3.1-2.3-4.6c-0.4-0.7,0.7-1.4,1.1-0.7c0.8,1.5,1.5,3.1,2.3,4.6
		C120.8,409.5,119.7,410.2,119.4,409.4z"/>
	<path fill="#010101" d="M104.8,412.4c-0.8-1.1-1.5-2.3-2.3-3.4c-0.5-0.7,0.7-1.3,1.1-0.7c0.8,1.1,1.5,2.3,2.3,3.4
		C106.4,412.5,105.2,413.1,104.8,412.4z"/>
	<path fill="#010101" d="M121,418.3c-1.9-1.7-3.8-3.4-5.8-5.2c-0.6-0.6,0.3-1.5,0.9-0.9c1.9,1.7,3.8,3.4,5.8,5.2
		C122.5,417.9,121.6,418.8,121,418.3z"/>
	<path fill="#010101" d="M102.1,324.1c0.3,2.5,0.7,5,1,7.5c0.1,0.8-1.2,0.8-1.3,0c-0.3-2.5-0.7-5-1-7.5
		C100.7,323.3,102,323.3,102.1,324.1z"/>
	<path fill="#010101" d="M127.2,316.5c0.1,0.8-1.2,0.8-1.3,0c-0.3-2.3-0.5-4.6-0.8-6.9c-0.1-0.8,1.2-0.8,1.3,0
		C126.7,311.9,127,314.2,127.2,316.5z"/>
</g>
</svg>
